<?xml version="1.0" encoding="UTF-8" standalone="no"?><!DOCTYPE svg PUBLIC "-//W3C//DTD SVG 1.1//EN" "http://www.w3.org/Graphics/SVG/1.1/DTD/svg11.dtd"><svg width="100%" height="100%" viewBox="0 0 471 389" version="1.1" xmlns="http://www.w3.org/2000/svg" xmlns:xlink="http://www.w3.org/1999/xlink" xml:space="preserve" xmlns:serif="http://www.serif.com/" style="fill-rule:evenodd;clip-rule:evenodd;stroke-linejoin:round;stroke-miterlimit:1.41421;"><rect id="Artboard1" x="0" y="0" width="470.648" height="388.391" style="fill:none;"/><path d="M84.843,235.564l1.069,-11.056c0.35,-3.838 3.792,-6.71 7.631,-6.367l154.977,14.988c5.225,0.505 9.941,-3.379 10.446,-8.605l1.437,-14.855c0.506,-5.226 -3.379,-9.942 -8.604,-10.447l-155.567,-15.045c-3.833,-0.371 -6.685,-3.823 -6.327,-7.657l1.16,-11.997c0.358,-3.83 -2.492,-7.278 -6.32,-7.648c-1.103,-0.107 -2.216,0.049 -3.247,0.454c-0.14,0.055 -0.275,0.122 -0.404,0.202l-49.537,30.096c-2.349,1.014 -3.966,3.234 -4.213,5.781c-0.248,2.571 0.938,5.081 3.084,6.52l43.326,40.674c0.126,0.121 0.264,0.228 0.413,0.319c0.911,0.559 1.937,0.903 3,1.006c3.837,0.371 7.3,-2.481 7.671,-6.319c0.002,-0.014 0.003,-0.029 0.005,-0.044Z" style="fill:#9547cf;fill-rule:nonzero;"/><path d="M84.843,235.564l1.069,-11.056c0.35,-3.838 3.792,-6.71 7.631,-6.367l154.977,14.988c5.225,0.505 9.941,-3.379 10.446,-8.605l1.437,-14.855c0.506,-5.226 -3.379,-9.942 -8.604,-10.447l-155.567,-15.045c-3.833,-0.371 -6.685,-3.823 -6.327,-7.657l1.16,-11.997c0.358,-3.83 -2.492,-7.278 -6.32,-7.648c-1.103,-0.107 -2.216,0.049 -3.247,0.454c-0.14,0.055 -0.275,0.122 -0.404,0.202l-49.537,30.096c-2.349,1.014 -3.966,3.234 -4.213,5.781c-0.248,2.571 0.938,5.081 3.084,6.52l43.326,40.674c0.126,0.121 0.264,0.228 0.413,0.319c0.911,0.559 1.937,0.903 3,1.006c3.837,0.371 7.3,-2.481 7.671,-6.319c0.002,-0.014 0.003,-0.029 0.005,-0.044Z" style="fill:#9547cf;fill-rule:nonzero;"/><path d="M84.843,235.564l1.069,-11.056c0.35,-3.838 3.792,-6.71 7.631,-6.367l154.977,14.988c5.225,0.505 9.941,-3.379 10.446,-8.605l1.437,-14.855c0.509,-5.263 -5.586,-19.679 -10.857,-20.189l2.245,9.741l-155.559,-15.044c-3.833,-0.371 -6.685,-3.823 -6.327,-7.657l1.16,-11.997c0.373,-3.859 -4.842,-16.94 -8.702,-17.306c-1.097,-0.106 0.162,9.706 -0.865,10.112c-0.14,0.055 -0.275,0.122 -0.404,0.202l-57.692,24.048c-3.569,1.531 2.943,11.715 4.475,15.276c0.534,1.25 1.421,2.318 2.551,3.073l43.326,40.674c0.126,0.121 0.264,0.228 0.413,0.319c0.911,0.559 1.937,0.903 3,1.006c3.837,0.371 7.3,-2.481 7.671,-6.319c0.002,-0.014 0.003,-0.029 0.005,-0.044Z" style="fill:url(#_Linear1);fill-rule:nonzero;"/><path d="M79.912,225.156l1.069,-11.056c0.001,-0.015 0.003,-0.03 0.004,-0.045c0.37,-3.82 3.804,-6.668 7.627,-6.323l154.977,14.989c5.225,0.505 9.941,-3.379 10.446,-8.605l1.437,-14.855c0.501,-5.225 -3.38,-9.938 -8.604,-10.447l-155.567,-15.045c-3.835,-0.367 -6.69,-3.822 -6.327,-7.657l1.16,-11.997c0.355,-3.837 -2.506,-7.288 -6.343,-7.651c-1.094,-0.104 -2.197,0.047 -3.222,0.442c-0.139,0.058 -0.274,0.125 -0.404,0.202l-49.554,30.109c-2.342,1.014 -3.954,3.227 -4.2,5.767c-0.248,2.571 0.941,5.079 3.088,6.513l43.326,40.675c0.124,0.123 0.263,0.23 0.414,0.319c0.91,0.559 1.936,0.903 2.999,1.005c3.838,0.371 7.301,-2.481 7.672,-6.318c0.001,-0.015 0.002,-0.03 0.004,-0.044l-0.002,0.022Z" style="fill:#9547cf;fill-rule:nonzero;"/><path d="M79.912,225.156l1.069,-11.056c0.001,-0.015 0.003,-0.03 0.004,-0.045c0.37,-3.82 3.804,-6.668 7.627,-6.323l154.977,14.989c5.225,0.505 9.941,-3.379 10.446,-8.605l1.437,-14.855c0.501,-5.225 -3.38,-9.938 -8.604,-10.447l-155.567,-15.045c-3.835,-0.367 -6.69,-3.822 -6.327,-7.657l1.16,-11.997c0.355,-3.837 -2.506,-7.288 -6.343,-7.651c-1.094,-0.104 -2.197,0.047 -3.222,0.442c-0.139,0.058 -0.274,0.125 -0.404,0.202l-49.554,30.109c-2.342,1.014 -3.954,3.227 -4.2,5.767c-0.248,2.571 0.941,5.079 3.088,6.513l43.326,40.675c0.124,0.123 0.263,0.23 0.414,0.319c0.91,0.559 1.936,0.903 2.999,1.005c3.838,0.371 7.301,-2.481 7.672,-6.318c0.001,-0.015 0.002,-0.03 0.004,-0.044l-0.002,0.022Z" style="fill:url(#_Linear2);fill-rule:nonzero;"/><path d="M208.308,112.438l2.254,-10.876c0.762,-3.778 4.493,-6.263 8.273,-5.509l152.461,31.593c5.14,1.065 10.247,-2.288 11.312,-7.429l3.029,-14.614c1.065,-5.141 -2.289,-10.248 -7.429,-11.313l-153.041,-31.713c-3.771,-0.782 -6.236,-4.521 -5.466,-8.295l2.445,-11.801c0.768,-3.769 -1.693,-7.505 -5.46,-8.285c-1.085,-0.225 -2.207,-0.19 -3.276,0.102c-0.146,0.039 -0.287,0.092 -0.423,0.157l-52.491,24.586c-2.445,0.756 -4.292,2.788 -4.811,5.294c-0.524,2.529 0.385,5.152 2.363,6.814l38.693,45.104c0.113,0.134 0.239,0.255 0.377,0.361c0.845,0.654 1.828,1.107 2.874,1.323c3.775,0.783 7.525,-1.68 8.308,-5.455c0.003,-0.015 0.006,-0.029 0.008,-0.044Z" style="fill:#9547cf;fill-rule:nonzero;"/><path d="M208.308,112.438l2.254,-10.876c0.762,-3.778 4.493,-6.263 8.273,-5.509l152.461,31.593c5.14,1.065 10.247,-2.288 11.312,-7.429l3.029,-14.614c1.065,-5.141 -2.289,-10.248 -7.429,-11.313l-153.041,-31.713c-3.771,-0.782 -6.236,-4.521 -5.466,-8.295l2.445,-11.801c0.768,-3.769 -1.693,-7.505 -5.46,-8.285c-1.085,-0.225 -2.207,-0.19 -3.276,0.102c-0.146,0.039 -0.287,0.092 -0.423,0.157l-52.491,24.586c-2.445,0.756 -4.292,2.788 -4.811,5.294c-0.524,2.529 0.385,5.152 2.363,6.814l38.693,45.104c0.113,0.134 0.239,0.255 0.377,0.361c0.845,0.654 1.828,1.107 2.874,1.323c3.775,0.783 7.525,-1.68 8.308,-5.455c0.003,-0.015 0.006,-0.029 0.008,-0.044Z" style="fill:#9547cf;fill-rule:nonzero;"/><path d="M208.308,112.438l2.254,-10.876c0.762,-3.778 4.493,-6.263 8.273,-5.509l152.461,31.593c5.14,1.065 10.247,-2.288 11.312,-7.429l3.029,-14.614c1.073,-5.178 -3.435,-20.167 -8.62,-21.241l1.183,9.926l-153.033,-31.711c-3.771,-0.782 -6.236,-4.521 -5.466,-8.295l2.445,-11.801c0.787,-3.797 -2.989,-17.363 -6.787,-18.142c-1.08,-0.224 -0.885,9.666 -1.949,9.959c-0.146,0.039 -0.287,0.092 -0.423,0.157l-59.948,17.694c-3.713,1.138 1.665,11.965 2.804,15.67c0.397,1.3 1.163,2.457 2.205,3.33l38.693,45.104c0.113,0.134 0.239,0.255 0.377,0.361c0.845,0.654 1.828,1.107 2.874,1.323c3.775,0.783 7.525,-1.68 8.308,-5.455c0.003,-0.015 0.006,-0.029 0.008,-0.044Z" style="fill:url(#_Linear3);fill-rule:nonzero;"/><path d="M204.527,101.56l2.254,-10.877c0.003,-0.015 0.006,-0.029 0.009,-0.044c0.779,-3.758 4.5,-6.219 8.263,-5.464l152.461,31.593c5.141,1.065 10.248,-2.289 11.313,-7.429l3.029,-14.615c1.06,-5.14 -2.291,-10.244 -7.43,-11.313l-153.041,-31.713c-3.773,-0.778 -6.239,-4.52 -5.466,-8.294l2.446,-11.802c0.766,-3.777 -1.707,-7.516 -5.482,-8.29c-1.076,-0.221 -2.189,-0.189 -3.251,0.093c-0.145,0.042 -0.286,0.095 -0.424,0.157l-52.508,24.597c-2.437,0.755 -4.279,2.783 -4.796,5.281c-0.524,2.529 0.388,5.15 2.368,6.808l38.693,45.104c0.11,0.136 0.236,0.258 0.377,0.362c0.844,0.654 1.827,1.106 2.874,1.323c3.774,0.782 7.525,-1.681 8.307,-5.456c0.003,-0.014 0.006,-0.029 0.009,-0.043l-0.005,0.022Z" style="fill:#9547cf;fill-rule:nonzero;"/><path d="M204.527,101.56l2.254,-10.877c0.003,-0.015 0.006,-0.029 0.009,-0.044c0.779,-3.758 4.5,-6.219 8.263,-5.464l152.461,31.593c5.141,1.065 10.248,-2.289 11.313,-7.429l3.029,-14.615c1.06,-5.14 -2.291,-10.244 -7.43,-11.313l-153.041,-31.713c-3.773,-0.778 -6.239,-4.52 -5.466,-8.294l2.446,-11.802c0.766,-3.777 -1.707,-7.516 -5.482,-8.29c-1.076,-0.221 -2.189,-0.189 -3.251,0.093c-0.145,0.042 -0.286,0.095 -0.424,0.157l-52.508,24.597c-2.437,0.755 -4.279,2.783 -4.796,5.281c-0.524,2.529 0.388,5.15 2.368,6.808l38.693,45.104c0.11,0.136 0.236,0.258 0.377,0.362c0.844,0.654 1.827,1.106 2.874,1.323c3.774,0.782 7.525,-1.681 8.307,-5.456c0.003,-0.014 0.006,-0.029 0.009,-0.043l-0.005,0.022Z" style="fill:url(#_Linear4);fill-rule:nonzero;"/><path d="M181.574,361.135l0.337,-11.102c0.096,-3.852 3.341,-6.946 7.194,-6.857l155.628,4.721c5.248,0.159 9.697,-4.028 9.856,-9.275l0.453,-14.918c0.159,-5.248 -4.028,-9.697 -9.276,-9.856l-156.22,-4.74c-3.849,-0.116 -6.924,-3.373 -6.819,-7.222l0.365,-12.047c0.104,-3.845 -2.967,-7.098 -6.812,-7.215c-1.107,-0.033 -2.207,0.195 -3.209,0.668c-0.136,0.064 -0.267,0.141 -0.39,0.228l-47.441,33.302c-2.277,1.167 -3.745,3.489 -3.822,6.047c-0.079,2.582 1.271,5.007 3.507,6.301l45.917,37.725c0.134,0.112 0.279,0.21 0.434,0.291c0.945,0.497 1.992,0.773 3.06,0.805c3.853,0.117 7.12,-2.957 7.237,-6.811c0.001,-0.015 0.001,-0.03 0.001,-0.045Z" style="fill:#9547cf;fill-rule:nonzero;"/><path d="M181.574,361.135l0.337,-11.102c0.096,-3.852 3.341,-6.946 7.194,-6.857l155.628,4.721c5.248,0.159 9.697,-4.028 9.856,-9.275l0.453,-14.918c0.159,-5.248 -4.028,-9.697 -9.276,-9.856l-156.22,-4.74c-3.849,-0.116 -6.924,-3.373 -6.819,-7.222l0.365,-12.047c0.104,-3.845 -2.967,-7.098 -6.812,-7.215c-1.107,-0.033 -2.207,0.195 -3.209,0.668c-0.136,0.064 -0.267,0.141 -0.39,0.228l-47.441,33.302c-2.277,1.167 -3.745,3.489 -3.822,6.047c-0.079,2.582 1.271,5.007 3.507,6.301l45.917,37.725c0.134,0.112 0.279,0.21 0.434,0.291c0.945,0.497 1.992,0.773 3.06,0.805c3.853,0.117 7.12,-2.957 7.237,-6.811c0.001,-0.015 0.001,-0.03 0.001,-0.045Z" style="fill:#9547cf;fill-rule:nonzero;"/><path d="M181.574,361.135l0.337,-11.102c0.096,-3.852 3.341,-6.946 7.194,-6.857l155.628,4.721c5.248,0.159 9.697,-4.028 9.856,-9.275l0.453,-14.918c0.16,-5.286 -6.874,-19.268 -12.167,-19.428l2.884,9.572l-156.213,-4.74c-3.849,-0.116 -6.924,-3.373 -6.819,-7.222l0.365,-12.047c0.118,-3.876 -5.95,-16.583 -9.826,-16.693c-1.102,-0.034 0.802,9.673 -0.195,10.146c-0.136,0.064 -0.267,0.141 -0.39,0.228l-55.979,27.805c-3.46,1.764 3.711,11.496 5.475,14.948c0.616,1.212 1.571,2.219 2.748,2.897l45.917,37.725c0.134,0.112 0.279,0.21 0.434,0.291c0.945,0.497 1.992,0.773 3.06,0.805c3.853,0.117 7.12,-2.957 7.237,-6.811c0.001,-0.015 0.001,-0.03 0.001,-0.045Z" style="fill:url(#_Linear5);fill-rule:nonzero;"/><path d="M175.967,351.076l0.337,-11.103c0,-0.015 0,-0.03 0.001,-0.045c0.116,-3.836 3.355,-6.904 7.192,-6.812l155.629,4.721c5.247,0.16 9.696,-4.027 9.856,-9.275l0.452,-14.918c0.155,-5.246 -4.029,-9.693 -9.275,-9.856l-156.221,-4.739c-3.851,-0.113 -6.928,-3.372 -6.819,-7.223l0.366,-12.047c0.1,-3.852 -2.983,-7.107 -6.835,-7.216c-1.098,-0.031 -2.189,0.193 -3.186,0.654c-0.135,0.067 -0.265,0.144 -0.39,0.228l-47.457,33.317c-2.27,1.165 -3.732,3.481 -3.81,6.031c-0.078,2.582 1.274,5.006 3.511,6.295l45.917,37.725c0.132,0.115 0.278,0.212 0.434,0.291c0.946,0.497 1.992,0.773 3.06,0.805c3.853,0.117 7.12,-2.958 7.237,-6.811c0.001,-0.015 0.001,-0.03 0.001,-0.045l0,0.023Z" style="fill:#9547cf;fill-rule:nonzero;"/><path d="M175.967,351.076l0.337,-11.103c0,-0.015 0,-0.03 0.001,-0.045c0.116,-3.836 3.355,-6.904 7.192,-6.812l155.629,4.721c5.247,0.16 9.696,-4.027 9.856,-9.275l0.452,-14.918c0.155,-5.246 -4.029,-9.693 -9.275,-9.856l-156.221,-4.739c-3.851,-0.113 -6.928,-3.372 -6.819,-7.223l0.366,-12.047c0.1,-3.852 -2.983,-7.107 -6.835,-7.216c-1.098,-0.031 -2.189,0.193 -3.186,0.654c-0.135,0.067 -0.265,0.144 -0.39,0.228l-47.457,33.317c-2.27,1.165 -3.732,3.481 -3.81,6.031c-0.078,2.582 1.274,5.006 3.511,6.295l45.917,37.725c0.132,0.115 0.278,0.212 0.434,0.291c0.946,0.497 1.992,0.773 3.06,0.805c3.853,0.117 7.12,-2.958 7.237,-6.811c0.001,-0.015 0.001,-0.03 0.001,-0.045l0,0.023Z" style="fill:url(#_Linear6);fill-rule:nonzero;"/><defs><linearGradient id="_Linear1" x1="0" y1="0" x2="1" y2="0" gradientUnits="userSpaceOnUse" gradientTransform="matrix(13.0419,146.875,146.875,-13.0419,137.02,146.928)"><stop offset="0" style="stop-color:#000;stop-opacity:1"/><stop offset="0.01" style="stop-color:#000;stop-opacity:1"/><stop offset="0.99" style="stop-color:#000;stop-opacity:0"/><stop offset="1" style="stop-color:#000;stop-opacity:0"/></linearGradient><linearGradient id="_Linear2" x1="0" y1="0" x2="1" y2="0" gradientUnits="userSpaceOnUse" gradientTransform="matrix(-11.6552,138.044,138.044,11.6552,144.931,120.137)"><stop offset="0" style="stop-color:#fff;stop-opacity:1"/><stop offset="0.09" style="stop-color:#fff;stop-opacity:0.94902"/><stop offset="0.25" style="stop-color:#fff;stop-opacity:0.827451"/><stop offset="0.46" style="stop-color:#fff;stop-opacity:0.627451"/><stop offset="0.71" style="stop-color:#fff;stop-opacity:0.34902"/><stop offset="0.99" style="stop-color:#fff;stop-opacity:0"/><stop offset="1" style="stop-color:#fff;stop-opacity:0"/></linearGradient><linearGradient id="_Linear3" x1="0" y1="0" x2="1" y2="0" gradientUnits="userSpaceOnUse" gradientTransform="matrix(-2.85332,147.425,147.425,2.85332,269.729,29.9372)"><stop offset="0" style="stop-color:#000;stop-opacity:1"/><stop offset="0.01" style="stop-color:#000;stop-opacity:1"/><stop offset="0.99" style="stop-color:#000;stop-opacity:0"/><stop offset="1" style="stop-color:#000;stop-opacity:0"/></linearGradient><linearGradient id="_Linear4" x1="0" y1="0" x2="1" y2="0" gradientUnits="userSpaceOnUse" gradientTransform="matrix(-26.4556,135.986,135.986,26.4556,280.479,4.15468)"><stop offset="0" style="stop-color:#fff;stop-opacity:1"/><stop offset="0.09" style="stop-color:#fff;stop-opacity:0.94902"/><stop offset="0.25" style="stop-color:#fff;stop-opacity:0.827451"/><stop offset="0.46" style="stop-color:#fff;stop-opacity:0.627451"/><stop offset="0.71" style="stop-color:#fff;stop-opacity:0.34902"/><stop offset="0.99" style="stop-color:#fff;stop-opacity:0"/><stop offset="1" style="stop-color:#fff;stop-opacity:0"/></linearGradient><linearGradient id="_Linear5" x1="0" y1="0" x2="1" y2="0" gradientUnits="userSpaceOnUse" gradientTransform="matrix(22.7124,145.693,145.693,-22.7124,227.785,269.247)"><stop offset="0" style="stop-color:#000;stop-opacity:1"/><stop offset="0.01" style="stop-color:#000;stop-opacity:1"/><stop offset="0.99" style="stop-color:#000;stop-opacity:0"/><stop offset="1" style="stop-color:#000;stop-opacity:0"/></linearGradient><linearGradient id="_Linear6" x1="0" y1="0" x2="1" y2="0" gradientUnits="userSpaceOnUse" gradientTransform="matrix(-2.51397,138.512,138.512,2.51397,233.909,241.993)"><stop offset="0" style="stop-color:#fff;stop-opacity:1"/><stop offset="0.09" style="stop-color:#fff;stop-opacity:0.94902"/><stop offset="0.25" style="stop-color:#fff;stop-opacity:0.827451"/><stop offset="0.46" style="stop-color:#fff;stop-opacity:0.627451"/><stop offset="0.71" style="stop-color:#fff;stop-opacity:0.34902"/><stop offset="0.99" style="stop-color:#fff;stop-opacity:0"/><stop offset="1" style="stop-color:#fff;stop-opacity:0"/></linearGradient></defs></svg>