<?xml version="1.0" encoding="UTF-8" standalone="no"?><!DOCTYPE svg PUBLIC "-//W3C//DTD SVG 1.1//EN" "http://www.w3.org/Graphics/SVG/1.1/DTD/svg11.dtd"><svg width="100%" height="100%" viewBox="0 0 1050 1050" version="1.1" xmlns="http://www.w3.org/2000/svg" xmlns:xlink="http://www.w3.org/1999/xlink" xml:space="preserve" xmlns:serif="http://www.serif.com/" style="fill-rule:evenodd;clip-rule:evenodd;stroke-linejoin:round;stroke-miterlimit:1.41421;"><rect id="Artboard1" x="0" y="0" width="1050" height="1050" style="fill:none;"/><circle cx="525" cy="525" r="520.87" style="fill:url(#_Linear1);"/><g><path d="M195.594,451.608l23.792,0l0,-148.432l-23.792,0l0,-42.519l113.435,0.307c10.54,0 20.185,1.867 28.934,5.602c8.749,3.736 16.296,8.801 22.641,15.197c6.344,6.395 11.282,13.866 14.812,22.41c3.531,8.545 5.296,17.627 5.296,27.246c0,11.257 -1.97,20.569 -5.91,27.937c-3.939,7.368 -9.542,13.303 -16.808,17.806c7.675,4.912 13.738,10.975 18.19,18.189c4.451,7.214 6.677,15.989 6.677,26.325c0,10.54 -1.816,20.211 -5.449,29.011c-3.633,8.801 -8.596,16.399 -14.889,22.794c-6.294,6.396 -13.739,11.359 -22.334,14.89c-8.596,3.53 -17.857,5.295 -27.784,5.295l-116.811,0l0,-42.058Zm74.753,-54.185l0,54.185l38.682,0c2.967,0 5.756,-0.767 8.365,-2.302c2.61,-1.535 4.861,-3.556 6.754,-6.064c1.893,-2.507 3.403,-5.423 4.528,-8.749c1.126,-3.326 1.689,-6.779 1.689,-10.361c0,-3.786 -0.563,-7.291 -1.689,-10.515c-1.125,-3.223 -2.66,-6.037 -4.605,-8.442c-1.944,-2.405 -4.221,-4.298 -6.83,-5.679c-2.61,-1.382 -5.347,-2.073 -8.212,-2.073l-38.682,0Zm0,-94.247l0,52.189l36.533,0c2.865,0 5.577,-0.716 8.135,-2.149c2.558,-1.433 4.784,-3.351 6.677,-5.756c1.893,-2.405 3.403,-5.117 4.528,-8.136c1.126,-3.018 1.689,-6.165 1.689,-9.44c0,-3.172 -0.563,-6.344 -1.689,-9.517c-1.125,-3.172 -2.635,-6.037 -4.528,-8.595c-1.893,-2.559 -4.119,-4.631 -6.677,-6.217c-2.558,-1.586 -5.27,-2.379 -8.135,-2.379l-36.533,0Z" style="fill:#fff;fill-rule:nonzero;"/><path d="M518.891,497.811c-10.54,0 -20.62,-1.433 -30.239,-4.298c-9.619,-2.865 -18.599,-6.907 -26.939,-12.126c-8.34,-5.219 -15.912,-11.487 -22.717,-18.804c-6.806,-7.317 -12.613,-15.452 -17.422,-24.406c-4.81,-8.954 -8.545,-18.548 -11.206,-28.781c-2.66,-10.233 -3.991,-20.927 -3.991,-32.081c0,-11.154 1.331,-21.873 3.991,-32.158c2.661,-10.284 6.396,-19.903 11.206,-28.857c4.809,-8.954 10.616,-17.09 17.422,-24.406c6.805,-7.317 14.377,-13.585 22.717,-18.804c8.34,-5.219 17.32,-9.261 26.939,-12.126c9.619,-2.866 19.699,-4.298 30.239,-4.298c10.54,0 20.646,1.432 30.316,4.298c9.67,2.865 18.676,6.907 27.016,12.126c8.34,5.219 15.912,11.487 22.717,18.804c6.805,7.316 12.638,15.452 17.499,24.406c4.861,8.954 8.621,18.573 11.282,28.857c2.661,10.285 3.991,21.004 3.991,32.158c0,11.052 -1.33,21.72 -3.991,32.004c-2.661,10.285 -6.421,19.904 -11.282,28.858c-4.861,8.954 -10.694,17.089 -17.499,24.406c-6.805,7.317 -14.377,13.585 -22.717,18.804c-8.34,5.219 -17.346,9.261 -27.016,12.126c-9.67,2.865 -19.776,4.298 -30.316,4.298Zm0,-48.198c8.903,0 17.064,-1.919 24.483,-5.757c7.419,-3.837 13.789,-9.056 19.111,-15.656c5.321,-6.601 9.44,-14.276 12.356,-23.025c2.917,-8.749 4.375,-18.036 4.375,-27.86c0,-9.926 -1.484,-19.289 -4.452,-28.09c-2.967,-8.801 -7.137,-16.501 -12.51,-23.101c-5.372,-6.601 -11.742,-11.82 -19.11,-15.657c-7.368,-3.838 -15.452,-5.756 -24.253,-5.756c-8.8,0 -16.885,1.918 -24.252,5.756c-7.368,3.837 -13.713,9.056 -19.034,15.657c-5.321,6.6 -9.492,14.3 -12.51,23.101c-3.019,8.801 -4.528,18.164 -4.528,28.09c0,9.824 1.509,19.111 4.528,27.86c3.018,8.749 7.189,16.424 12.51,23.025c5.321,6.6 11.666,11.819 19.034,15.656c7.367,3.838 15.452,5.757 24.252,5.757Z" style="fill:#fff;fill-rule:nonzero;"/><path d="M696.918,451.608l24.099,0l0,-149.967l-28.244,0l0,30.085l-50.04,0l0,-70.762l211.673,0l0,70.762l-50.347,0l0,-30.085l-32.081,0l0,149.967l24.56,0l0,42.058l-99.62,0l0,-42.058Z" style="fill:#fff;fill-rule:nonzero;"/><path d="M393.452,525.307l99.62,0l0,42.212l-21.029,0l-53.57,190.491l-66.312,0l-35.151,-145.209l-35.918,145.209l-65.697,0l-54.492,-190.491l-23.485,0l0,-42.212l99.774,0l0,42.212l-24.253,0l34.23,125.408l41.291,-167.16l57.101,0l40.523,167.16l34.384,-125.408l-27.016,0l0,-42.212Z" style="fill:#fff;fill-rule:nonzero;"/><path d="M513.488,525.307l185.118,0l0,79.358l-50.04,0l0,-33.002l-59.711,0l0,45.896l46.203,0l0,44.515l-46.203,0l0,53.877l59.711,0l0,-41.291l50.04,0l0,83.35l-185.118,0l0,-42.059l24.406,0l0,-144.288l-24.406,0l0,-46.356Z" style="fill:#fff;fill-rule:nonzero;"/><path d="M725.315,715.951l23.792,0l0,-148.432l-23.792,0l0,-42.519l113.435,0.307c10.54,0 20.185,1.868 28.934,5.603c8.749,3.735 16.296,8.8 22.641,15.196c6.344,6.396 11.282,13.866 14.812,22.411c3.531,8.544 5.296,17.626 5.296,27.246c0,11.256 -1.97,20.568 -5.91,27.936c-3.939,7.368 -9.542,13.303 -16.808,17.806c7.675,4.912 13.738,10.975 18.19,18.189c4.451,7.215 6.677,15.99 6.677,26.325c0,10.54 -1.816,20.211 -5.449,29.011c-3.633,8.801 -8.596,16.399 -14.889,22.795c-6.294,6.395 -13.738,11.359 -22.334,14.889c-8.596,3.53 -17.857,5.296 -27.783,5.296l-116.812,0l0,-42.059Zm74.753,-54.184l0,54.184l38.682,0c2.967,0 5.756,-0.767 8.365,-2.302c2.61,-1.535 4.861,-3.556 6.754,-6.063c1.893,-2.507 3.403,-5.424 4.528,-8.75c1.126,-3.325 1.689,-6.779 1.689,-10.361c0,-3.786 -0.563,-7.291 -1.689,-10.514c-1.125,-3.224 -2.66,-6.038 -4.605,-8.443c-1.944,-2.405 -4.221,-4.298 -6.83,-5.679c-2.61,-1.382 -5.347,-2.072 -8.212,-2.072l-38.682,0Zm0,-94.248l0,52.189l36.533,0c2.865,0 5.577,-0.716 8.135,-2.149c2.558,-1.432 4.784,-3.351 6.677,-5.756c1.893,-2.405 3.403,-5.117 4.528,-8.135c1.126,-3.019 1.689,-6.166 1.689,-9.44c0,-3.173 -0.563,-6.345 -1.689,-9.517c-1.125,-3.173 -2.635,-6.038 -4.528,-8.596c-1.893,-2.559 -4.119,-4.631 -6.677,-6.217c-2.558,-1.586 -5.27,-2.379 -8.135,-2.379l-36.533,0Z" style="fill:#fff;fill-rule:nonzero;"/></g><defs><linearGradient id="_Linear1" x1="0" y1="0" x2="1" y2="0" gradientUnits="userSpaceOnUse" gradientTransform="matrix(459.342,-1451.25,1451.25,459.342,289.227,1451.25)"><stop offset="0" style="stop-color:#ae78d8;stop-opacity:1"/><stop offset="1" style="stop-color:#9547cf;stop-opacity:1"/></linearGradient></defs></svg>