<?xml version="1.0" encoding="UTF-8" standalone="no"?><!DOCTYPE svg PUBLIC "-//W3C//DTD SVG 1.1//EN" "http://www.w3.org/Graphics/SVG/1.1/DTD/svg11.dtd"><svg width="100%" height="100%" viewBox="0 0 1050 1050" version="1.1" xmlns="http://www.w3.org/2000/svg" xmlns:xlink="http://www.w3.org/1999/xlink" xml:space="preserve" xmlns:serif="http://www.serif.com/" style="fill-rule:evenodd;clip-rule:evenodd;stroke-linejoin:round;stroke-miterlimit:1.41421;"><rect id="Artboard1" x="0" y="0" width="1050" height="1050" style="fill:none;"/><circle cx="525" cy="525" r="520.87" style="fill:url(#_Linear1);"/><g><path d="M261.989,734.115l66.831,0l0,-416.937l-66.831,0l0,-119.433l318.631,0.862c29.607,0 56.699,5.246 81.275,15.738c24.577,10.492 45.776,24.72 63.597,42.685c17.822,17.966 31.691,38.949 41.608,62.951c9.916,24.001 14.875,49.512 14.875,76.532c0,31.618 -5.533,57.776 -16.6,78.472c-11.067,20.696 -26.804,37.367 -47.213,50.015c21.559,13.797 38.59,30.828 51.093,51.093c12.504,20.265 18.756,44.913 18.756,73.945c0,29.607 -5.102,56.77 -15.306,81.49c-10.204,24.721 -24.146,46.063 -41.823,64.029c-17.678,17.965 -38.59,31.906 -62.735,41.823c-24.145,9.916 -50.159,14.875 -78.041,14.875l-328.117,0l0,-118.14Zm209.978,-152.201l0,152.201l108.653,0c8.336,0 16.169,-2.155 23.499,-6.467c7.33,-4.312 13.654,-9.989 18.971,-17.031c5.318,-7.042 9.558,-15.235 12.72,-24.577c3.161,-9.341 4.742,-19.043 4.742,-29.103c0,-10.636 -1.581,-20.481 -4.742,-29.535c-3.162,-9.055 -7.474,-16.959 -12.935,-23.714c-5.462,-6.755 -11.857,-12.073 -19.187,-15.953c-7.33,-3.881 -15.019,-5.821 -23.068,-5.821l-108.653,0Zm0,-264.736l0,146.596l102.617,0c8.048,0 15.666,-2.012 22.852,-6.036c7.186,-4.024 13.438,-9.414 18.756,-16.169c5.317,-6.755 9.557,-14.372 12.719,-22.851c3.162,-8.48 4.743,-17.319 4.743,-26.517c0,-8.911 -1.581,-17.822 -4.743,-26.732c-3.162,-8.911 -7.402,-16.96 -12.719,-24.146c-5.318,-7.186 -11.57,-13.006 -18.756,-17.462c-7.186,-4.455 -14.804,-6.683 -22.852,-6.683l-102.617,0Z" style="fill:#fff;fill-rule:nonzero;"/></g><defs><linearGradient id="_Linear1" x1="0" y1="0" x2="1" y2="0" gradientUnits="userSpaceOnUse" gradientTransform="matrix(459.342,-1451.25,1451.25,459.342,289.227,1451.25)"><stop offset="0" style="stop-color:#ae78d8;stop-opacity:1"/><stop offset="1" style="stop-color:#9547cf;stop-opacity:1"/></linearGradient></defs></svg>