<?xml version="1.0" encoding="UTF-8" standalone="no"?><!DOCTYPE svg PUBLIC "-//W3C//DTD SVG 1.1//EN" "http://www.w3.org/Graphics/SVG/1.1/DTD/svg11.dtd"><svg width="100%" height="100%" viewBox="0 0 2394 1228" version="1.1" xmlns="http://www.w3.org/2000/svg" xmlns:xlink="http://www.w3.org/1999/xlink" xml:space="preserve" xmlns:serif="http://www.serif.com/" style="fill-rule:evenodd;clip-rule:evenodd;stroke-linejoin:round;stroke-miterlimit:1.41421;"><rect id="Artboard2" x="0" y="0" width="2393.25" height="1227.75" style="fill:none;"/><rect x="204.207" y="990.618" width="830.445" height="40.768" style="fill:#d9c2ed;"/><path d="M993.883,600.589l0,396.429l40.769,0l0,-396.429l-40.769,0Z" style="fill:#d9c2ed;"/><rect x="1014.27" y="600.589" width="1183.7" height="40.768" style="fill:#d9c2ed;"/><path d="M2157.2,196.187l0,445.171l40.769,0l0,-445.171l-40.769,0Z" style="fill:#d9c2ed;"/><rect x="2079.21" y="196.187" width="118.757" height="40.768" style="fill:#d9c2ed;"/><rect x="204.207" y="780.54" width="405.729" height="40.768" style="fill:#d9c2ed;"/><path d="M204.207,586.789l0,410.229l40.769,0l0,-410.229l-40.769,0Z" style="fill:#d9c2ed;"/><path d="M204.207,615.469l0,189.258l40.769,0l0,-189.258l-40.769,0Z" style="fill:#d9c2ed;"/><path d="M244.976,617.678l0,-418.479l-40.769,0l0,418.479l40.769,0Z" style="fill:#d9c2ed;"/><rect x="204.207" y="195.396" width="408.729" height="40.768" style="fill:#d9c2ed;"/><rect x="551.27" y="195.396" width="512.761" height="40.768" style="fill:#d9c2ed;"/><path d="M1064.03,287.437l0,-91.574l-40.769,0l0,91.574l40.769,0Z" style="fill:#d9c2ed;"/><path d="M2079.21,287.896l0,-91.574l-40.768,0l0,91.574l40.768,0Z" style="fill:#d9c2ed;"/><g><path d="M1069.42,504.759l33.047,0l0,-268.735l-33.047,0l0,-40.161l156.514,0.459c14.075,0 27.309,2.639 39.702,7.917c12.392,5.279 23.179,12.469 32.358,21.572c9.18,9.104 16.409,19.852 21.687,32.244c5.279,12.393 7.918,25.703 7.918,39.932c0,14.84 -4.131,28.38 -12.393,40.62c-8.262,12.239 -20.042,22.031 -35.342,29.375c7.497,3.978 14.305,8.606 20.425,13.884c6.12,5.278 11.322,11.054 15.606,17.327c4.283,6.273 7.611,12.928 9.983,19.966c2.371,7.037 3.557,14.228 3.557,21.572c0,14.534 -2.639,28.074 -7.918,40.62c-5.278,12.546 -12.507,23.485 -21.687,32.817c-9.18,9.333 -19.927,16.677 -32.243,22.032c-12.317,5.354 -25.512,8.032 -39.588,8.032l-158.579,0l0,-39.473Zm78.027,-115.205l0,115.205l81.011,0c7.344,0 14.152,-1.836 20.425,-5.508c6.273,-3.671 11.781,-8.453 16.523,-14.343c4.743,-5.89 8.453,-12.584 11.131,-20.08c2.677,-7.497 4.016,-15.147 4.016,-22.95c0,-6.731 -1.377,-13.234 -4.131,-19.506c-2.754,-6.273 -6.464,-11.858 -11.13,-16.753c-4.667,-4.896 -10.175,-8.798 -16.524,-11.704c-6.349,-2.907 -13.119,-4.361 -20.31,-4.361l-81.011,0Zm0,-153.53l0,113.599l78.946,0c7.343,0 14.19,-1.454 20.539,-4.361c6.35,-2.907 11.857,-6.808 16.524,-11.704c4.666,-4.896 8.376,-10.557 11.13,-16.982c2.754,-6.426 4.131,-13.081 4.131,-19.966c0,-7.497 -1.377,-14.879 -4.131,-22.146c-2.754,-7.267 -6.502,-13.731 -11.245,-19.392c-4.743,-5.661 -10.289,-10.251 -16.638,-13.77c-6.35,-3.519 -13.12,-5.278 -20.31,-5.278l-78.946,0Z" style="fill:#252338;fill-rule:nonzero;"/><path d="M1530.24,551.117c-24.02,0 -45.975,-4.475 -65.864,-13.426c-19.889,-8.95 -37.637,-21.687 -53.242,-38.21c-15.606,-16.524 -27.463,-36.107 -35.571,-58.75c-8.109,-22.643 -12.163,-46.128 -12.163,-70.454c0,-25.091 4.092,-48.653 12.277,-70.684c8.186,-22.031 19.66,-41.194 34.424,-57.488c14.764,-16.294 32.359,-29.145 52.783,-38.554c20.425,-9.409 42.877,-14.114 67.356,-14.114c24.632,0 47.199,4.705 67.701,14.114c20.501,9.409 38.095,22.26 52.783,38.554c14.687,16.294 26.085,35.457 34.194,57.488c8.109,22.031 12.163,45.593 12.163,70.684c0,25.091 -4.092,48.614 -12.278,70.569c-8.185,21.954 -19.66,41.117 -34.424,57.487c-14.764,16.371 -32.358,29.261 -52.783,38.67c-20.425,9.409 -42.877,14.114 -67.356,14.114Zm0,-42.686c18.207,0 34.692,-3.748 49.456,-11.245c14.764,-7.497 27.348,-17.556 37.751,-30.178c10.404,-12.622 18.436,-27.272 24.097,-43.948c5.661,-16.676 8.491,-34.271 8.491,-52.783c0,-18.972 -3.098,-37.293 -9.294,-54.964c-6.196,-17.67 -14.841,-32.626 -25.933,-44.865c-11.092,-12.24 -23.982,-21.687 -38.669,-28.343c-14.688,-6.655 -29.987,-9.982 -45.899,-9.982c-18.206,0 -34.729,3.748 -49.57,11.245c-14.84,7.496 -27.463,17.556 -37.866,30.178c-10.404,12.622 -18.436,27.309 -24.097,44.062c-5.661,16.753 -8.491,34.309 -8.491,52.669c0,21.419 3.136,40.505 9.409,57.258c6.273,16.753 14.573,30.676 24.9,41.768c10.327,11.092 22.643,20.386 36.948,27.883c14.305,7.497 30.561,11.245 48.767,11.245Z" style="fill:#252338;fill-rule:nonzero;"/><path d="M1817.33,504.759l31.899,0l0,-270.801l-79.404,0l0,54.161l-47.046,0l0,-91.797l310.274,0l0,91.797l-47.046,0l0,-54.161l-91.797,0l0,270.801l35.801,0l0,39.473l-112.681,0l0,-39.473Z" style="fill:#252338;fill-rule:nonzero;"/><path d="M1501.39,683.477l103.223,0l0,39.702l-27.694,0l-90.845,308.208l-64.2,0l-86.229,-303.159l-79.515,303.159l-63.57,0l-92.733,-308.208l-28.114,0l0,-39.702l103.223,0l0,39.702l-27.694,0l76.998,267.358l81.194,-307.06l62.731,0l86.439,307.06l78.466,-267.358l-31.68,0l0,-39.702Z" style="fill:#252338;fill-rule:nonzero;"/><path d="M1652.29,683.477l249.229,0l0,98.452l-47.046,0l0,-58.75l-124.155,0l0,111.303l104.419,0l0,39.473l-104.419,0l0,117.959l124.155,0l0,-58.75l47.046,0l0,98.223l-249.229,0l0,-39.473l33.047,0l0,-268.735l-33.047,0l0,-39.702Z" style="fill:#252338;fill-rule:nonzero;"/><path d="M1949.2,994.423l33.047,0l0,-268.736l-33.047,0l0,-40.161l156.514,0.459c14.075,0 27.309,2.639 39.702,7.918c12.392,5.278 23.179,12.469 32.358,21.572c9.18,9.103 16.409,19.851 21.687,32.244c5.279,12.392 7.918,25.703 7.918,39.931c0,14.841 -4.131,28.381 -12.393,40.62c-8.262,12.24 -20.042,22.032 -35.342,29.375c7.497,3.978 14.305,8.606 20.425,13.885c6.12,5.278 11.322,11.054 15.606,17.326c4.283,6.273 7.611,12.928 9.983,19.966c2.371,7.038 3.557,14.229 3.557,21.572c0,14.535 -2.639,28.075 -7.918,40.621c-5.278,12.545 -12.507,23.484 -21.687,32.817c-9.18,9.333 -19.927,16.676 -32.243,22.031c-12.317,5.355 -25.512,8.032 -39.588,8.032l-158.579,0l0,-39.472Zm78.027,-115.205l0,115.205l81.011,0c7.344,0 14.152,-1.836 20.425,-5.508c6.273,-3.672 11.781,-8.453 16.523,-14.343c4.743,-5.891 8.453,-12.584 11.131,-20.081c2.677,-7.497 4.016,-15.146 4.016,-22.949c0,-6.732 -1.377,-13.234 -4.131,-19.507c-2.754,-6.273 -6.464,-11.857 -11.13,-16.753c-4.667,-4.896 -10.175,-8.797 -16.524,-11.704c-6.349,-2.907 -13.119,-4.36 -20.31,-4.36l-81.011,0Zm0,-153.531l0,113.599l78.946,0c7.343,0 14.19,-1.453 20.539,-4.36c6.35,-2.907 11.857,-6.809 16.524,-11.704c4.666,-4.896 8.376,-10.557 11.13,-16.983c2.754,-6.426 4.131,-13.081 4.131,-19.966c0,-7.496 -1.377,-14.878 -4.131,-22.146c-2.754,-7.267 -6.502,-13.731 -11.245,-19.392c-4.743,-5.661 -10.289,-10.25 -16.638,-13.769c-6.35,-3.519 -13.12,-5.279 -20.31,-5.279l-78.946,0Z" style="fill:#252338;fill-rule:nonzero;"/></g><g><path d="M927.17,540.334c-99.508,123.052 -262.592,181.92 -420.325,146.432c18.296,10.578 37.618,19.909 57.899,27.84c162.797,63.659 341.403,19.098 456.201,-98.829c1.357,112.099 -41.649,224.501 -128.531,308.494c-167.394,161.829 -434.682,157.31 -596.51,-10.085c-107.238,-110.927 -141.429,-265.719 -103.582,-404.621l-110.758,-160.632l186.115,11.097c11.647,-14.766 24.417,-28.923 38.31,-42.354c167.395,-161.829 434.682,-157.31 596.51,10.085c34.853,36.051 61.99,76.736 81.446,120.004c-6.522,14.562 -13.785,28.586 -21.727,42.045l45.442,64.54l-80.49,-14.016Z" style="fill:#ccc;"/><path d="M977.981,808.647c17.55,-49.117 24.884,-101.77 22.079,-154.77c-106.825,110.307 -278.557,146.604 -439.241,78.108c-20.018,-8.533 -39.161,-18.393 -57.355,-29.426c19.824,5.237 39.671,8.967 59.404,11.246c0.877,0.35 1.756,0.697 2.637,1.042c162.797,63.659 341.403,19.098 456.201,-98.83c0.799,66.064 -13.809,132.233 -43.725,192.63Zm-889.802,-450.983l-5.854,-8.49l186.115,11.096c11.647,-14.766 24.417,-28.923 38.31,-42.353c167.395,-161.829 434.682,-157.31 596.51,10.085c34.853,36.051 61.99,76.736 81.446,120.003c-6.522,14.562 -13.785,28.587 -21.727,42.046l45.442,64.54l-54.712,-9.344l-14.108,-21.092c7.179,-12.795 14.187,-19.32 19.943,-33.246c-20.623,-42.923 -50.723,-85.81 -86.017,-122.318c-163.873,-169.51 -423.71,-184.555 -579.882,-33.576c-12.961,12.53 -24.803,25.812 -35.53,39.733l-169.936,-17.084Zm100.283,170.761c-26.63,131.08 13.512,278.016 119.138,387.275c41.358,42.78 88.828,75.722 139.201,98.64c-55.04,-21.381 -106.434,-54.708 -150.136,-99.913c-102.47,-105.994 -138.244,-252.039 -108.203,-386.002Z" style="fill:#e3e3e3;"/><path d="M927.17,540.334c-99.508,123.052 -262.592,181.92 -420.325,146.432c18.296,10.578 37.618,19.909 57.899,27.84c162.797,63.659 341.403,19.098 456.201,-98.829c1.357,112.099 -41.649,224.501 -128.531,308.494c-167.394,161.829 -434.682,157.31 -596.51,-10.085c-107.238,-110.927 -141.429,-265.719 -103.582,-404.621l-110.758,-160.632l186.115,11.097c11.647,-14.766 24.417,-28.923 38.31,-42.354c167.395,-161.829 434.682,-157.31 596.51,10.085c34.853,36.051 61.99,76.736 81.446,120.004c-6.522,14.562 -13.785,28.586 -21.727,42.045l45.442,64.54l-80.49,-14.016Z" style="fill:none;"/><path d="M964.538,485.704c0,0 -13.365,23.277 -22.307,34.762" style="fill:none;"/><path d="M546.558,658.424c0,0 -85.81,13.646 -35.963,70.066" style="fill:none;"/><path d="M594.019,309.387c49.583,-47.934 128.754,-46.595 176.688,2.988c47.934,49.582 46.596,128.754 -2.987,176.688c-49.583,47.934 -128.754,46.595 -176.688,-2.987c-47.934,-49.583 -46.596,-128.755 2.987,-176.689Z" style="fill:#ebebeb;"/><path d="M637.716,346.462c25.895,-25.034 67.243,-24.335 92.277,1.56c25.034,25.896 24.335,67.244 -1.56,92.278c-25.895,25.034 -67.243,24.335 -92.277,-1.56c-25.034,-25.896 -24.335,-67.244 1.56,-92.278Z" style="fill:#252338;"/><path d="M688.683,332.95c7.768,-7.51 20.173,-7.3 27.683,0.468c7.51,7.769 7.3,20.173 -0.468,27.683c-7.769,7.51 -20.173,7.3 -27.683,-0.468c-7.51,-7.769 -7.301,-20.173 0.468,-27.683Z" style="fill:#ebebeb;"/><path d="M371.953,329.438c13.378,-12.933 34.739,-12.572 47.672,0.806c12.933,13.378 12.572,34.74 -0.806,47.673c-13.378,12.933 -34.739,12.572 -47.672,-0.806c-12.933,-13.378 -12.572,-34.739 0.806,-47.673Z" style="fill:#e3e3e3;"/><path d="M345.76,431.489c10.276,-9.935 26.684,-9.657 36.619,0.619c9.934,10.276 9.657,26.684 -0.619,36.619c-10.276,9.934 -26.685,9.657 -36.619,-0.62c-9.935,-10.276 -9.657,-26.684 0.619,-36.618Z" style="fill:#e3e3e3;"/><path d="M248.005,448.094c15.694,-15.171 40.752,-14.748 55.923,0.946c15.172,15.693 14.748,40.751 -0.945,55.923c-15.693,15.171 -40.752,14.747 -55.923,-0.946c-15.172,-15.693 -14.748,-40.751 0.945,-55.923Z" style="fill:#e3e3e3;"/></g></svg>