<?xml version="1.0" encoding="UTF-8" standalone="no"?><!DOCTYPE svg PUBLIC "-//W3C//DTD SVG 1.1//EN" "http://www.w3.org/Graphics/SVG/1.1/DTD/svg11.dtd"><svg width="100%" height="100%" viewBox="0 0 824 597" version="1.1" xmlns="http://www.w3.org/2000/svg" xmlns:xlink="http://www.w3.org/1999/xlink" xml:space="preserve" xmlns:serif="http://www.serif.com/" style="fill-rule:evenodd;clip-rule:evenodd;stroke-linejoin:round;stroke-miterlimit:1.41421;"><path d="M779.07,477.86c7.78,0.13 17.8,2.07 19,9.75c0.65,4 -1.64,7.89 -4.12,11.12c-15.51,20.27 -41.21,30.52 -66.57,33.27c-25.36,2.75 -50.92,-1.1 -76.24,-4.22c-36.593,-4.52 -73.327,-7.52 -110.2,-9c-26.22,-1.06 -53.8,-1.72 -76.38,-15.08c-4.19,-2.47 -8.31,-5.56 -10.32,-10c-4,-8.83 2.32,-19.58 11,-23.87c8.68,-4.29 18.88,-3.87 28.56,-3.35c95.06,5.12 190.05,11.38 285.27,11.38Z" style="fill:#000405;fill-opacity:0.05;fill-rule:nonzero;"/><path d="M779.4,126.4c0,0 -33.83,43.75 -40.25,51.08c-11.71,13.32 -19.26,30.79 -19.26,30.79l-17,72.34l-19,-5.07l-41.31,-11c0,0 14.68,-39.54 7.57,-51.54c-9.48,-16 -1.28,-26 0.88,-32.87c4,-12.73 -16.43,-36 -16.43,-36l-13.09,-58.63l19.76,-2.64l14.34,47.53l24.57,21.93l17.5,0.93c0,0 13.2,2.72 22.8,-1.72c9.18,-4.26 41.61,-40.83 41.61,-40.83l13.23,12l4.08,3.7Z" style="fill:#9547cf;fill-rule:nonzero;"/><path d="M617.33,200.59l0,260.56c-0.005,13.634 -11.226,24.85 -24.86,24.85c-0.003,0 -0.007,0 -0.01,0l-389.69,0c-13.638,0 -24.86,-11.222 -24.86,-24.86l0,-260.55c-0.005,-13.63 11.2,-24.854 24.83,-24.87l389.72,0c0.003,0 0.007,0 0.01,0c13.638,0 24.86,11.222 24.86,24.86c0,0.003 0,0.007 0,0.01Z" style="fill:#9547cf;fill-rule:nonzero;"/><path d="M610.59,183.67l-426.59,0l3.46,-2.65c0.16,-0.139 0.327,-0.269 0.5,-0.39l202.92,-155.56l6.41,-4.91l206.47,158.28l6.83,5.23Z" style="fill:#9547cf;fill-rule:nonzero;"/><path d="M617.33,200.59l-5.19,3.75l-37.79,27.37l-183.47,132.89l-176.45,-135.89l-36.52,-28.12l0.47,-4.83c0.889,-4.528 3.03,-8.718 6.18,-12.09c0.884,-0.962 1.847,-1.849 2.88,-2.65c0.16,-0.139 0.327,-0.269 0.5,-0.39c4.281,-3.197 9.487,-4.921 14.83,-4.91l389.69,0c12.735,0.011 23.512,9.795 24.75,22.47c0.08,0.8 0.12,1.6 0.12,2.4Z" style="fill:#9547cf;fill-rule:nonzero;"/><path d="M187.44,181c-1.028,0.806 -1.991,1.693 -2.88,2.65l-0.56,0l3.44,-2.65Z" style="fill:url(#_Linear1);fill-rule:nonzero;"/><path d="M617.33,200.59l-5.19,3.76l-37.79,27.36l-183.47,132.89l-176.45,-135.88l-36.52,-28.13l0.47,-4.82c1.156,-5.847 4.372,-11.09 9.06,-14.77l0.5,-0.38l202.94,-155.55l6.41,-4.91l206.47,158.28c7.559,3.849 12.641,11.316 13.45,19.76c0.08,0.794 0.12,1.592 0.12,2.39Z" style="fill:url(#_Linear2);fill-rule:nonzero;"/><path d="M574.35,181.34l0,50.38l-67.71,49l-15.53,11.28l-100.23,72.6l-94.27,-72.6l-14.61,-11.24l-67.59,-52l0,-47.42c0,-8.103 6.667,-14.77 14.77,-14.77l330.41,0c8.097,0.011 14.755,6.673 14.76,14.77Z" style="fill:#fff;fill-rule:nonzero;"/><path d="M524.73,225.51l-267,0c-3.083,0 -5.62,-2.537 -5.62,-5.62c0,-3.083 2.537,-5.62 5.62,-5.62l267,0c3.083,0 5.62,2.537 5.62,5.62c0,3.083 -2.537,5.62 -5.62,5.62Z" style="fill:url(#_Linear3);fill-rule:nonzero;"/><path d="M524.73,258.76l-267,0c-3.083,0 -5.62,-2.537 -5.62,-5.62c0,-3.083 2.537,-5.62 5.62,-5.62l267,0c3.083,0 5.62,2.537 5.62,5.62c0,3.083 -2.537,5.62 -5.62,5.62Z" style="fill:url(#_Linear4);fill-rule:nonzero;"/><path d="M506.64,280.76l-15.53,11.24l-194.5,0l-14.6,-11.24l224.63,0Z" style="fill:url(#_Linear5);fill-rule:nonzero;"/><path d="M390.88,364.6l-162.86,121.42l329.08,0l-166.22,-121.42Z" style="fill:#000405;fill-opacity:0.05;fill-rule:nonzero;"/><path d="M250.4,90.2c-8.2,-17.59 -39,-14.7 -39,-14.7c19,-11.21 15.36,-39.68 15.13,-41.36c8.31,24.82 37,19.34 39.57,18.8c-19.05,4.7 -15.7,37.26 -15.7,37.26Z" style="fill:#9547cf;fill-rule:nonzero;"/><path d="M197,126.29c-5.21,-11.18 -24.8,-9.34 -24.8,-9.34c12.4,-7.37 9.59,-26.34 9.59,-26.34l0,0.11c5.32,15.69 23.52,12.21 25.14,11.87c-12.06,3 -9.93,23.7 -9.93,23.7Z" style="fill:#9547cf;fill-rule:nonzero;"/><path d="M721.56,92.7c2.414,-1.938 5.47,-2.902 8.56,-2.7c2.262,-0.092 4.477,0.673 6.2,2.14c1.328,1.49 2.172,3.349 2.42,5.33c0.488,2.455 0.673,4.96 0.55,7.46c-0.22,4.59 -1.41,9.45 0.57,13.6c0.47,0.987 1.106,1.887 1.88,2.66c0.895,1.001 2.142,1.621 3.48,1.73c1.369,0.061 2.591,-0.896 2.86,-2.24c-1.71,3.809 -5.514,6.271 -9.688,6.271c-1.515,0 -3.013,-0.325 -4.392,-0.951c-0.829,-0.379 -1.609,-0.86 -2.32,-1.43l1.74,3.53c-1.441,-0.37 -2.837,-0.9 -4.16,-1.58c-4.25,-2.31 -6.63,-7 -7.76,-11.74c-1,-4.35 -1.2,-8.84 -2.14,-13.21c-0.69,-3.33 -0.51,-6.45 2.2,-8.87Z" style="fill:#3f3d56;fill-rule:nonzero;"/><path d="M720.28,97.5c0.864,-0.03 1.725,0.102 2.54,0.39c1.375,0.572 2.322,1.866 2.45,3.35c0.078,1.495 -0.741,2.901 -2.08,3.57c-0.856,0.349 -1.777,0.509 -2.7,0.47c-0.84,0 -1.69,0 -2.53,-0.08c-0.54,0.049 -1.038,-0.312 -1.16,-0.84c-0.548,-1.089 -0.961,-2.241 -1.23,-3.43c-0.69,-3.68 1.79,-3.46 4.71,-3.43Z" style="fill:#9547cf;fill-rule:nonzero;"/><path d="M704,132.61c0,0 -0.16,2.89 -0.36,6.65c-0.17,3.17 -0.38,7 -0.55,10.18c-0.29,5.378 -2.602,10.453 -6.47,14.2c-2.26,2.31 -7.65,6.62 -11.76,5.09c-2,-0.74 -2.07,-3.26 -1.65,-4.77c0.927,-2.752 1.443,-5.627 1.53,-8.53c0.066,-2.35 -0.146,-4.7 -0.63,-7c-2.57,-6.43 19.89,-15.82 19.89,-15.82Z" style="fill:url(#_Linear6);fill-rule:nonzero;"/><path d="M704,132.61c0,0 -0.16,2.89 -0.36,6.65c-1.58,3.52 -3.06,6.39 -3.87,7.82c-1.63,2.89 -8.33,7.44 -15,8.35c0.066,-2.35 -0.146,-4.7 -0.63,-7c-2.6,-6.43 19.86,-15.82 19.86,-15.82Z" style="fill:url(#_Linear7);fill-rule:nonzero;"/><path d="M684.44,94.32c-11.767,0.714 -20.863,10.983 -20.15,22.75c0,0.51 0.08,1 0.15,1.52c0.668,8.737 2.911,17.281 6.62,25.22c7,12 24.74,2.13 27.55,-2.81c2.81,-4.94 13.59,-27.22 9.06,-33.53c-3.12,-4.26 -11.77,-13.61 -23.23,-13.15Z" style="fill:url(#_Linear8);fill-rule:nonzero;"/><path d="M678.14,82.13c7.525,-2.197 15.556,-1.962 22.94,0.67c7.27,2.76 13.54,8.44 16.31,15.71c2.378,6.736 2.15,14.124 -0.64,20.7c-2.815,6.523 -7.299,12.191 -13,16.43c-1.47,-4.5 3.06,-8.5 4.82,-12.89c0.41,-0.811 0.499,-1.747 0.25,-2.62c-0.64,-1.63 -3.08,-1.81 -4.47,-0.75c-1.39,1.06 -2,2.85 -2.51,4.52c1.35,-7.15 2.35,-15.55 -2.71,-20.79c-3,-3.1 -7.53,-4.26 -11.85,-4.3c-8.015,-0.024 -15.693,3.277 -21.19,9.11c-1.59,1.71 -3.85,3.81 -5.87,2.63c-0.628,-0.43 -1.121,-1.03 -1.42,-1.73c-5.97,-11.82 9.71,-24.05 19.34,-26.69Z" style="fill:#3f3d56;fill-rule:nonzero;"/><path d="M687.8,95.34c-5,-2.2 -10.25,-4 -15.68,-4c-5.43,0 -11.06,1.84 -14.65,5.92c-1.875,2.273 -3.239,4.923 -4,7.77c-0.601,1.781 -0.839,3.665 -0.7,5.54c0.217,1.36 0.552,2.698 1,4c0.94,3.24 1.34,7 -0.71,9.72c-0.77,1.097 -2.002,1.783 -3.34,1.86c-1.363,0.024 -2.545,-0.981 -2.74,-2.33c-0.88,2.49 0.56,5.41 2.85,6.72c2.386,1.212 5.179,1.346 7.67,0.37c1.036,-0.325 1.998,-0.852 2.83,-1.55c0.823,-0.792 1.5,-1.723 2,-2.75c2.09,-3.79 3.14,-8 4.7,-12.09c1.56,-4.09 3.82,-8 7.51,-10.3c2.923,-1.597 6.209,-2.413 9.54,-2.37c3.31,-0.11 6.64,0.16 9.94,-0.14c3.3,-0.3 0.91,-2.26 -0.51,-3.29c-1.793,-1.219 -3.707,-2.251 -5.71,-3.08Z" style="fill:#3f3d56;fill-rule:nonzero;"/><path d="M822.11,59.49c0.85,0.66 -7.11,6.86 -7.11,6.86c0,0 -3.72,6.41 -7.5,8.19c-3.78,1.78 -32.18,48.15 -32.18,48.15l-11.21,-10.16l24.18,-32.53c0,0 8,-15.33 7.11,-22c0,0 0.48,-7.88 2.89,-4.22c1.7,2.61 0.61,6.72 2.62,7.16c0.223,0.019 0.446,-0.029 0.64,-0.14c1.668,-1.011 3.197,-2.235 4.55,-3.64c4,-3.81 8.78,-9.11 8.78,-9.11c0,0 2.62,-1.11 2.29,0c-0.33,1.11 -5.14,8.6 -5.41,9c0.45,-0.41 7.83,-7 9,-6.49c1.17,0.51 -5.72,8.1 -6.12,8.54c0.43,-0.3 8.3,-5.78 8.89,-5.29c1.11,0.93 -6,7.1 -6.59,7.57c0.45,-0.24 4.36,-2.53 5.17,-1.89Z" style="fill:url(#_Linear9);fill-rule:nonzero;"/><path d="M813.67,64.24c-0.596,0.194 -1.23,0.246 -1.85,0.15c-2.016,-0.153 -4.04,-0.187 -6.06,-0.1c-1.36,0.06 -4.17,1 -4.24,-1.11c0,-0.56 0.14,-1.11 0.11,-1.67c-0.014,-0.242 -0.047,-0.483 -0.1,-0.72c1.668,-1.011 3.197,-2.235 4.55,-3.64c0.613,0.205 1.192,0.498 1.72,0.87l3.94,2.55c0.7,0.46 1.4,0.92 2.07,1.42c0.296,0.186 0.532,0.453 0.68,0.77c0.128,0.625 -0.222,1.257 -0.82,1.48Z" style="fill:url(#_Linear10);fill-rule:nonzero;"/><path d="M618.4,7.42c-1.08,0.12 2.42,9.58 2.42,9.58c0,0 -0.22,7.41 2,10.91c2.22,3.5 2,57.15 2,57.15l14.88,-2l-3.38,-40.41c0,0 1.29,-17.24 5.56,-22.43c0,0 3.74,-6.95 -0.23,-5.11c-2.82,1.32 -4.07,5.38 -6,4.7c-0.204,-0.096 -0.37,-0.258 -0.47,-0.46c-0.909,-1.732 -1.582,-3.579 -2,-5.49c-1.41,-5.35 -2.65,-12.37 -2.65,-12.37c0,0 -1.6,-2.3 -1.86,-1.19c-0.26,1.11 -0.17,10 -0.16,10.51c-0.17,-0.57 -3,-10.09 -4.25,-10.26c-1.25,-0.17 0.59,9.9 0.71,10.48c-0.22,-0.48 -4,-9.28 -4.78,-9.18c-1.43,0.21 1.41,9.23 1.62,9.9c-0.28,-0.44 -2.39,-4.43 -3.41,-4.33Z" style="fill:url(#_Linear11);fill-rule:nonzero;"/><path d="M623,15.91c0.416,0.48 0.941,0.853 1.53,1.09c1.792,0.939 3.528,1.981 5.2,3.12c1.13,0.77 3,3.07 4.19,1.29c0.32,-0.46 0.47,-1 0.79,-1.47c0.146,-0.199 0.303,-0.389 0.47,-0.57c-0.909,-1.732 -1.582,-3.579 -2,-5.49c-0.629,-0.148 -1.276,-0.202 -1.92,-0.16l-4.69,0.09c-0.841,-0.018 -1.683,0.018 -2.52,0.11c-0.356,-0.002 -0.704,0.102 -1,0.3c-0.433,0.47 -0.454,1.195 -0.05,1.69Z" style="fill:url(#_Linear12);fill-rule:nonzero;"/><path d="M565.67,479.21c-4,8.17 -6.91,14.52 -6.91,14.52l-50.33,2.4c0,0 8.34,-22.07 21.91,-16.37c4.59,1.92 21.22,-1.69 21.22,-1.69l0.52,-1.67l13.59,2.81Z" style="fill:url(#_Linear13);fill-rule:nonzero;"/><path d="M744.05,481.68l-7.71,4.32l-66,-69.38l-7.28,-92.62l-60.18,54.59c0,0 1.61,37.59 -19.43,67c-3.77,5.27 -11.44,20.58 -17.24,32.54c-0.18,0.37 -0.36,0.75 -0.53,1.12l-1.13,-0.23l-3.93,-0.82l-8.53,-1.76l27.66,-111.8l62.85,-100.06l41.31,11l19,5.07c0,0 12.82,25.69 0,92.18l-8.5,38.06c0,0 34.26,18.27 44.82,54.41l4.77,16.36l0.05,0.02Z" style="fill:#3f3d56;fill-rule:nonzero;"/><path d="M744.05,481.68l7.83,8.19l-19.88,20.72l-26,0c0,0 5.54,-9.15 16.62,-10.6c11.08,-1.45 13.73,-14 13.73,-14l7.7,-4.31Z" style="fill:url(#_Linear14);fill-rule:nonzero;"/><path d="M215.81,74.06l-4.39,1.44c19,-11.21 15.36,-39.68 15.13,-41.36c0.3,1.35 4.72,20.14 2.31,26.31c-3.01,7.71 -13.05,13.61 -13.05,13.61Z" style="fill:#fff;fill-opacity:0.22;fill-rule:nonzero;"/><path d="M184.41,108.44c-2.32,3.21 -11.54,8.16 -12.17,8.49c12.4,-7.37 9.59,-26.34 9.59,-26.34l0,0.11c0.49,1.3 4.84,14.6 2.58,17.74Z" style="fill:#fff;fill-opacity:0.22;fill-rule:nonzero;"/><path d="M178.65,214.27l203.67,156.71l8.56,-6.38l-212.97,-164.01l0.74,13.68Z" style="fill:#fff;fill-opacity:0.22;fill-rule:nonzero;"/><path d="M397.62,369.97l219.71,-158.14l0,-10.79l-226.45,164l6.74,4.93Z" style="fill:#fff;fill-opacity:0.22;fill-rule:nonzero;"/><path d="M617.21,198.64l-0.6,1.68l-4.47,4.47c3.14,-5.42 -5.73,-18 -5.73,-18l-3.54,-2.65l-10.63,-8l-201.36,-150.62l6.41,-4.91l206.47,158.27c7.556,3.854 12.636,11.317 13.45,19.76Z" style="fill:#fff;fill-opacity:0.22;fill-rule:nonzero;"/><path d="M779.4,126.4c0,0 -33.83,43.75 -40.25,51.08c-11.71,13.32 -19.26,30.79 -19.26,30.79l-17,72.34l-19,-5.07c0,0 17.74,-66.33 24.87,-80.41c7.13,-14.08 66.54,-72.44 66.54,-72.44l4.1,3.71Z" style="fill:url(#_Linear15);fill-rule:nonzero;"/><path d="M744,481.66c-0.35,-1 -11.64,-32.36 -28.59,-45.51c-17.21,-13.36 -27.21,-31.8 -27.21,-31.8c-4,-35.4 -4.33,-128.81 -4.33,-128.81l19,5.07c0,0 12.82,25.69 0,92.18l-8.5,38.06c0,0 34.26,18.31 44.82,54.45l4.81,16.36Z" style="fill:#25233a;fill-rule:nonzero;"/><path d="M602.88,378.57c0,0 1.61,37.59 -19.43,67c-3.77,5.27 -11.44,20.58 -17.24,32.54l-1.66,0.89l-3.93,-0.82l32.62,-102.89c0,0 39.51,-46.81 46.76,-51.29c7.25,-4.48 23.08,0 23.08,0l-60.2,54.57Z" style="fill:#25233a;fill-rule:nonzero;"/><defs><linearGradient id="_Linear1" x1="0" y1="0" x2="1" y2="0" gradientUnits="userSpaceOnUse" gradientTransform="matrix(3.83,-10.41,10.41,3.83,184.13,186.62)"><stop offset="0" style="stop-color:#00272e;stop-opacity:0.61"/><stop offset="0.36" style="stop-color:#00272e;stop-opacity:0.61"/><stop offset="0.75" style="stop-color:#3f80a1;stop-opacity:0.150706"/><stop offset="1" style="stop-color:#69b9eb;stop-opacity:0"/></linearGradient><linearGradient id="_Linear2" x1="0" y1="0" x2="1" y2="0" gradientUnits="userSpaceOnUse" gradientTransform="matrix(-121,430,-430,-121,444.69,31.61)"><stop offset="0" style="stop-color:#000;stop-opacity:0"/><stop offset="0.91" style="stop-color:#000;stop-opacity:0.8"/><stop offset="1" style="stop-color:#000;stop-opacity:1"/></linearGradient><linearGradient id="_Linear3" x1="0" y1="0" x2="1" y2="0" gradientUnits="userSpaceOnUse" gradientTransform="matrix(-73,350,-350,-73,405.84,149.83)"><stop offset="0" style="stop-color:#000;stop-opacity:0"/><stop offset="0.91" style="stop-color:#000;stop-opacity:0.8"/><stop offset="1" style="stop-color:#000;stop-opacity:1"/></linearGradient><linearGradient id="_Linear4" x1="0" y1="0" x2="1" y2="0" gradientUnits="userSpaceOnUse" gradientTransform="matrix(-73,350,-350,-73,412.49,151.21)"><stop offset="0" style="stop-color:#000;stop-opacity:0"/><stop offset="0.91" style="stop-color:#000;stop-opacity:0.8"/><stop offset="1" style="stop-color:#000;stop-opacity:1"/></linearGradient><linearGradient id="_Linear5" x1="0" y1="0" x2="1" y2="0" gradientUnits="userSpaceOnUse" gradientTransform="matrix(-73,350,-350,-73,420.97,152.99)"><stop offset="0" style="stop-color:#000;stop-opacity:0"/><stop offset="0.91" style="stop-color:#000;stop-opacity:0.8"/><stop offset="1" style="stop-color:#000;stop-opacity:1"/></linearGradient><linearGradient id="_Linear6" x1="0" y1="0" x2="1" y2="0" gradientUnits="userSpaceOnUse" gradientTransform="matrix(21,0,0,21,683.01,150.83)"><stop offset="0" style="stop-color:#ecc4d7;stop-opacity:1"/><stop offset="0.42" style="stop-color:#efd4d1;stop-opacity:1"/><stop offset="1" style="stop-color:#f2eac9;stop-opacity:1"/></linearGradient><linearGradient id="_Linear7" x1="0" y1="0" x2="1" y2="0" gradientUnits="userSpaceOnUse" gradientTransform="matrix(-4.33,-48.55,48.55,-4.33,694.49,458.85)"><stop offset="0" style="stop-color:#ecc4d7;stop-opacity:1"/><stop offset="0.42" style="stop-color:#efd4d1;stop-opacity:1"/><stop offset="1" style="stop-color:#f2eac9;stop-opacity:1"/></linearGradient><linearGradient id="_Linear8" x1="0" y1="0" x2="1" y2="0" gradientUnits="userSpaceOnUse" gradientTransform="matrix(44.52,0,0,44.52,664.58,476.09)"><stop offset="0" style="stop-color:#ecc4d7;stop-opacity:1"/><stop offset="0.42" style="stop-color:#efd4d1;stop-opacity:1"/><stop offset="1" style="stop-color:#f2eac9;stop-opacity:1"/></linearGradient><linearGradient id="_Linear9" x1="0" y1="0" x2="1" y2="0" gradientUnits="userSpaceOnUse" gradientTransform="matrix(59.54,0,0,59.54,764.44,512.88)"><stop offset="0" style="stop-color:#ecc4d7;stop-opacity:1"/><stop offset="0.42" style="stop-color:#efd4d1;stop-opacity:1"/><stop offset="1" style="stop-color:#f2eac9;stop-opacity:1"/></linearGradient><linearGradient id="_Linear10" x1="0" y1="0" x2="1" y2="0" gradientUnits="userSpaceOnUse" gradientTransform="matrix(-6.02,46.74,-46.74,-6.02,810.28,519.93)"><stop offset="0" style="stop-color:#ecc4d7;stop-opacity:1"/><stop offset="0.42" style="stop-color:#efd4d1;stop-opacity:1"/><stop offset="1" style="stop-color:#f2eac9;stop-opacity:1"/></linearGradient><linearGradient id="_Linear11" x1="0" y1="0" x2="1" y2="0" gradientUnits="userSpaceOnUse" gradientTransform="matrix(-50.5258,-31.4985,31.4985,-50.5258,654.819,61.1512)"><stop offset="0" style="stop-color:#ecc4d7;stop-opacity:1"/><stop offset="0.42" style="stop-color:#efd4d1;stop-opacity:1"/><stop offset="1" style="stop-color:#f2eac9;stop-opacity:1"/></linearGradient><linearGradient id="_Linear12" x1="0" y1="0" x2="1" y2="0" gradientUnits="userSpaceOnUse" gradientTransform="matrix(29.8355,-36.4789,36.4789,29.8355,619.517,30.6943)"><stop offset="0" style="stop-color:#ecc4d7;stop-opacity:1"/><stop offset="0.42" style="stop-color:#efd4d1;stop-opacity:1"/><stop offset="1" style="stop-color:#f2eac9;stop-opacity:1"/></linearGradient><linearGradient id="_Linear13" x1="0" y1="0" x2="1" y2="0" gradientUnits="userSpaceOnUse" gradientTransform="matrix(7.71,32.12,-32.12,7.71,532.84,470.11)"><stop offset="0" style="stop-color:#68e1fd;stop-opacity:1"/><stop offset="0.01" style="stop-color:#67ddf9;stop-opacity:1"/><stop offset="0.12" style="stop-color:#5cb3ce;stop-opacity:1"/><stop offset="0.24" style="stop-color:#538ea9;stop-opacity:1"/><stop offset="0.37" style="stop-color:#4c718b;stop-opacity:1"/><stop offset="0.5" style="stop-color:#465a73;stop-opacity:1"/><stop offset="0.63" style="stop-color:#424a63;stop-opacity:1"/><stop offset="0.79" style="stop-color:#404059;stop-opacity:1"/><stop offset="0.99" style="stop-color:#3f3d56;stop-opacity:1"/><stop offset="1" style="stop-color:#3f3d56;stop-opacity:1"/></linearGradient><linearGradient id="_Linear14" x1="0" y1="0" x2="1" y2="0" gradientUnits="userSpaceOnUse" gradientTransform="matrix(12.85,-17.98,17.98,12.85,723.22,106.25)"><stop offset="0" style="stop-color:#68e1fd;stop-opacity:1"/><stop offset="0.01" style="stop-color:#67ddf9;stop-opacity:1"/><stop offset="0.12" style="stop-color:#5cb3ce;stop-opacity:1"/><stop offset="0.24" style="stop-color:#538ea9;stop-opacity:1"/><stop offset="0.37" style="stop-color:#4c718b;stop-opacity:1"/><stop offset="0.5" style="stop-color:#465a73;stop-opacity:1"/><stop offset="0.63" style="stop-color:#424a63;stop-opacity:1"/><stop offset="0.79" style="stop-color:#404059;stop-opacity:1"/><stop offset="0.99" style="stop-color:#3f3d56;stop-opacity:1"/><stop offset="1" style="stop-color:#3f3d56;stop-opacity:1"/></linearGradient><linearGradient id="_Linear15" x1="0" y1="0" x2="1" y2="0" gradientUnits="userSpaceOnUse" gradientTransform="matrix(143.03,316.48,-316.48,143.03,691.29,111.67)"><stop offset="0" style="stop-color:#000;stop-opacity:0"/><stop offset="0.91" style="stop-color:#000;stop-opacity:0.8"/><stop offset="1" style="stop-color:#000;stop-opacity:1"/></linearGradient></defs></svg>