<?xml version="1.0" encoding="UTF-8" standalone="no"?><!DOCTYPE svg PUBLIC "-//W3C//DTD SVG 1.1//EN" "http://www.w3.org/Graphics/SVG/1.1/DTD/svg11.dtd"><svg width="100%" height="100%" viewBox="0 0 824 597" version="1.1" xmlns="http://www.w3.org/2000/svg" xmlns:xlink="http://www.w3.org/1999/xlink" xml:space="preserve" xmlns:serif="http://www.serif.com/" style="fill-rule:evenodd;clip-rule:evenodd;stroke-linejoin:round;stroke-miterlimit:1.41421;"><g><path d="M69.637,523.871l0.963,0c5.578,0 9.451,2.413 11.621,7.238c-0.509,4.405 -1.24,6.607 -2.192,6.607l-0.332,0c-1.306,0 -3.508,-0.63 -6.607,-1.892l-6.276,-0.631c-11.444,0 -21.084,4.715 -28.919,14.145c-3.365,4.559 -5.047,9.485 -5.047,14.775c0,2.944 2.202,4.416 6.607,4.416c2.656,0 6.43,-0.841 11.322,-2.523l0,-0.299l-0.332,0l-9.097,0.631c0,-0.576 -0.841,-1.318 -2.524,-2.225l0.299,-0.299l0,-0.332l-1.859,0l0,-0.631l1.859,-0.299l0,-0.298l-2.49,-0.332l0,-0.631l0.929,0l0,-0.299l-1.56,0l0,-0.332l0.631,-0.93c-1.483,0 -2.225,-0.21 -2.225,-0.631c0,-1.394 12.894,-4.327 38.682,-8.799c2.413,0 4.195,1.461 5.346,4.383l0.332,0.963c0,2.169 -1.472,4.472 -4.416,6.906c0,2.059 -5.235,6.254 -15.706,12.584c-4.914,2.723 -9.739,4.084 -14.476,4.084l-2.822,0c-9.408,0 -15.705,-4.825 -18.893,-14.476l-0.299,-2.822l0,-1.893c0,-7.57 5.866,-16.69 17.598,-27.359c8.677,-5.866 18.638,-8.799 29.883,-8.799Z" style="fill:#944dcc;fill-rule:nonzero;"/><path d="M116.453,523.273c0,0.753 0.376,1.129 1.129,1.129l0,0.564l-0.863,0l0,0.299c0.952,0 1.427,0.188 1.427,0.565l0,0.299l-1.128,0c0,0.575 0.564,0.863 1.693,0.863l0,0.564l-0.863,0l0,0.266l3.42,0l2.589,1.428l-0.298,0.298l0,0.266c0.951,0 1.427,0.199 1.427,0.598c0,0.686 -3.519,1.439 -10.558,2.258c-2.391,0 -6.94,1.328 -13.647,3.984l-3.154,6.275l0.299,0c1.018,-0.376 3.962,-0.664 8.832,-0.863l0.564,0.863l-0.863,0.299l0,0.266c1.527,0 2.291,0.188 2.291,0.564l-1.428,0.598l0,0.266l0.565,0l-0.266,0.863c0,0.952 0.753,1.715 2.258,2.291l0,0.265l-0.266,0.299l0,0.266c0.952,0 1.428,0.199 1.428,0.598l0,0.265c0,0.576 -5.988,2.092 -17.963,4.549c-1.483,0 -3.387,2.855 -5.711,8.566l20.52,-3.419l0,0.564l0.299,0l1.427,-0.299c0.244,0.952 0.72,1.428 1.428,1.428l0,0.863c-0.465,0 -0.941,0.288 -1.428,0.863l-0.597,0l0,0.266l1.726,0l0,0.598l-1.428,0l0.299,0.265l0,0.299l-0.299,0.266c2.812,0 4.328,0.476 4.549,1.428l-0.265,0.298c0.951,0.133 1.427,0.421 1.427,0.864c-1.682,1.084 -7.382,2.501 -17.099,4.25c-11.4,1.925 -17.1,3.641 -17.1,5.146c-0.265,0.996 -1.118,1.848 -2.556,2.557l-0.299,0l-1.694,-1.428l-0.597,0l-1.428,0.299c0,-0.487 -0.941,-0.963 -2.822,-1.428l-0.864,0.266l-0.298,-0.266l0,-0.299l0.298,-0.863l-0.564,0l-0.299,0.299l-0.266,0l-0.298,-0.299l0,-0.266c1.571,-5.644 8.599,-21.604 21.084,-47.879c0,-1.903 1.328,-3.043 3.984,-3.419l11.123,0.298l11.123,-0.863Z" style="fill:#944dcc;fill-rule:nonzero;"/><path d="M147.963,520.517l5.943,0.299l5.944,0c1.151,0 1.992,0.531 2.523,1.594l-0.332,0.299c1.04,0.066 1.561,0.376 1.561,0.929l0,0.332l-3.42,0l0,0.299l1.228,0l0,0.631l-0.598,0l0.299,0.332l-0.299,0.299l0,0.631l1.561,0.299l0,0.332l-0.332,0.298l0,0.332c1.262,0 1.893,0.831 1.893,2.491c0.841,0.11 1.261,0.42 1.261,0.929l0,0.631l-18.494,2.192c-1.571,0 -2.822,1.981 -3.752,5.943c-11.023,21.471 -17.609,35.151 -19.756,41.039c-1.261,1.262 -2.302,1.893 -3.121,1.893l-1.261,-1.262c-1.24,0 -1.86,-0.52 -1.86,-1.561l-0.332,0.332l-0.299,0c-0.044,-0.531 -1.084,-1.472 -3.121,-2.822l-0.963,-1.594c0,-4.205 5.014,-15.373 15.041,-33.502l2.524,-5.943l-11.621,1.859c-4.383,0 -7.305,-1.981 -8.766,-5.943l-0.93,-3.752l0,-0.631c0,-1.328 0.83,-2.578 2.491,-3.752l4.084,0c6.552,0 17.52,-1.151 32.904,-3.453Z" style="fill:#944dcc;fill-rule:nonzero;"/><path d="M209.654,520.517l5.944,0.299l5.943,0c1.151,0 1.992,0.531 2.523,1.594l-0.332,0.299c1.041,0.066 1.561,0.376 1.561,0.929l0,0.332l-3.42,0l0,0.299l1.229,0l0,0.631l-0.598,0l0.299,0.332l-0.299,0.299l0,0.631l1.56,0.299l0,0.332l-0.332,0.298l0,0.332c1.262,0 1.893,0.831 1.893,2.491c0.841,0.11 1.262,0.42 1.262,0.929l0,0.631l-18.494,2.192c-1.572,0 -2.823,1.981 -3.752,5.943c-11.024,21.471 -17.609,35.151 -19.756,41.039c-1.262,1.262 -2.302,1.893 -3.121,1.893l-1.262,-1.262c-1.24,0 -1.859,-0.52 -1.859,-1.561l-0.332,0.332l-0.299,0c-0.045,-0.531 -1.085,-1.472 -3.121,-2.822l-0.963,-1.594c0,-4.205 5.013,-15.373 15.041,-33.502l2.523,-5.943l-11.621,1.859c-4.383,0 -7.305,-1.981 -8.766,-5.943l-0.929,-3.752l0,-0.631c0,-1.328 0.83,-2.578 2.49,-3.752l4.084,0c6.552,0 17.52,-1.151 32.904,-3.453Z" style="fill:#944dcc;fill-rule:nonzero;"/><path d="M239.77,522.045c2.988,0 6.209,2.479 9.662,7.437c0,1.749 -1.561,5.379 -4.682,10.891l-2.789,6.209l0.631,0l18.959,-4.981c2.833,-7.26 5.832,-13.469 8.998,-18.627l3.121,-0.929c2.302,0.066 5.202,2.036 8.699,5.91l0,1.859c0,1.483 -2.07,5.412 -6.209,11.787c-1.262,3.166 -1.892,5.346 -1.892,6.541l0.929,0.93l0,0.631l-3.718,1.859c0,0.62 -0.41,0.93 -1.229,0.93l0,0.299l0.299,0.332l0,0.299c-0.354,0 -0.664,0.619 -0.93,1.859c-0.531,0 -1.262,1.14 -2.191,3.42l-0.299,0l-0.299,-0.299l-0.332,0c0,1.727 -1.029,2.756 -3.088,3.088l0.299,0.332l0,0.631c-0.62,0 -0.93,0.31 -0.93,0.929l-0.631,0l-0.298,1.229l0.298,0.299l0,0.631l-0.298,0l-0.93,-0.299l0,0.93l-0.299,0l0.299,0.298l0,0.332c-1.66,1.616 -2.8,4.206 -3.42,7.77c0,0.996 -0.62,2.335 -1.859,4.018l-0.332,0l-0.299,-0.299l-0.299,0l-0.93,0.929c0,-0.42 -1.14,-0.73 -3.42,-0.929l-0.332,-1.262l-0.299,0.332l-0.298,0c-0.62,-0.753 -0.93,-1.583 -0.93,-2.49c0,-3.896 1.76,-9.286 5.279,-16.17l1.528,-3.719l-0.299,0l-22.047,5.578c-0.487,1.262 -0.908,1.893 -1.262,1.893l-0.299,-0.332l-0.332,0c-1.438,1.638 -2.888,4.847 -4.349,9.629l-4.018,6.242l-0.332,0l0,-0.631l-1.228,0.93l-4.35,-1.561c0,-1.04 -0.52,-1.56 -1.561,-1.56l0,-1.86c0,-2.368 2.181,-7.648 6.541,-15.838l0.299,-1.56c-0.62,-0.199 -0.929,-0.819 -0.929,-1.86l0,-2.49c3.453,-1.793 5.423,-3.663 5.91,-5.611l6.508,-15.539l-0.299,-0.299l0,-0.299l2.789,-6.209l3.719,-1.56Z" style="fill:#944dcc;fill-rule:nonzero;"/><path d="M313.613,523.273c0,0.753 0.377,1.129 1.129,1.129l0,0.564l-0.863,0l0,0.299c0.952,0 1.428,0.188 1.428,0.565l0,0.299l-1.129,0c0,0.575 0.564,0.863 1.693,0.863l0,0.564l-0.863,0l0,0.266l3.42,0l2.59,1.428l-0.299,0.298l0,0.266c0.952,0 1.427,0.199 1.427,0.598c0,0.686 -3.519,1.439 -10.558,2.258c-2.391,0 -6.94,1.328 -13.647,3.984l-3.154,6.275l0.299,0c1.018,-0.376 3.962,-0.664 8.832,-0.863l0.564,0.863l-0.863,0.299l0,0.266c1.527,0 2.291,0.188 2.291,0.564l-1.428,0.598l0,0.266l0.565,0l-0.266,0.863c0,0.952 0.753,1.715 2.258,2.291l0,0.265l-0.266,0.299l0,0.266c0.952,0 1.428,0.199 1.428,0.598l0,0.265c0,0.576 -5.987,2.092 -17.963,4.549c-1.483,0 -3.386,2.855 -5.711,8.566l20.52,-3.419l0,0.564l0.299,0l1.427,-0.299c0.244,0.952 0.72,1.428 1.428,1.428l0,0.863c-0.465,0 -0.941,0.288 -1.428,0.863l-0.597,0l0,0.266l1.726,0l0,0.598l-1.427,0l0.298,0.265l0,0.299l-0.298,0.266c2.811,0 4.327,0.476 4.548,1.428l-0.265,0.298c0.952,0.133 1.428,0.421 1.428,0.864c-1.683,1.084 -7.383,2.501 -17.1,4.25c-11.4,1.925 -17.1,3.641 -17.1,5.146c-0.265,0.996 -1.118,1.848 -2.556,2.557l-0.299,0l-1.693,-1.428l-0.598,0l-1.428,0.299c0,-0.487 -0.941,-0.963 -2.822,-1.428l-0.863,0.266l-0.299,-0.266l0,-0.299l0.299,-0.863l-0.565,0l-0.299,0.299l-0.265,0l-0.299,-0.299l0,-0.266c1.571,-5.644 8.599,-21.604 21.084,-47.879c0,-1.903 1.328,-3.043 3.984,-3.419l11.123,0.298l11.123,-0.863Z" style="fill:#944dcc;fill-rule:nonzero;"/><path d="M379.189,522.011l2.092,0c2.656,0 4.848,1.196 6.574,3.586l0,0.897l-11.355,29.252c-2.789,5.157 -5.578,12.429 -8.367,21.814l-0.897,0.897l-0.896,0l-1.195,-0.897l-0.299,0.299l-1.494,0l-1.495,-0.896l-2.988,0.298l-2.39,-2.689l0,-2.092c0,-0.885 0.697,-2.977 2.091,-6.275l-7.736,-18.494l-2.391,-7.172l-0.298,0l-11.954,25.068c-1.394,2.856 -2.39,6.143 -2.988,9.861l0.299,0.299l0,0.299c-0.332,1.594 -0.731,2.391 -1.195,2.391l-0.897,0l-2.988,-1.793l-0.598,0l-1.195,0.299l-0.897,-0.299l-0.597,0.597l-0.299,-0.298l-0.299,0l-0.299,0.298l-2.689,-3.586l0,-1.195c0,-3.586 4.681,-14.532 14.045,-32.838l7.172,-15.24c1.084,-0.863 4.46,-1.461 10.127,-1.793c1.35,0 2.744,0.996 4.183,2.988l0,0.299c0,5.645 2.59,14.001 7.77,25.069c2.789,-4.782 5.877,-12.939 9.263,-24.471c0.687,-2.59 1.882,-3.885 3.586,-3.885c0,-0.354 0.498,-0.553 1.494,-0.598Z" style="fill:#944dcc;fill-rule:nonzero;"/><path d="M420.295,523.273c0,0.753 0.376,1.129 1.129,1.129l0,0.564l-0.863,0l0,0.299c0.951,0 1.427,0.188 1.427,0.565l0,0.299l-1.129,0c0,0.575 0.565,0.863 1.694,0.863l0,0.564l-0.864,0l0,0.266l3.42,0l2.59,1.428l-0.299,0.298l0,0.266c0.952,0 1.428,0.199 1.428,0.598c0,0.686 -3.519,1.439 -10.558,2.258c-2.391,0 -6.94,1.328 -13.647,3.984l-3.154,6.275l0.299,0c1.018,-0.376 3.962,-0.664 8.832,-0.863l0.564,0.863l-0.863,0.299l0,0.266c1.527,0 2.291,0.188 2.291,0.564l-1.428,0.598l0,0.266l0.565,0l-0.266,0.863c0,0.952 0.752,1.715 2.258,2.291l0,0.265l-0.266,0.299l0,0.266c0.952,0 1.428,0.199 1.428,0.598l0,0.265c0,0.576 -5.988,2.092 -17.963,4.549c-1.483,0 -3.387,2.855 -5.711,8.566l20.52,-3.419l0,0.564l0.298,0l1.428,-0.299c0.244,0.952 0.719,1.428 1.428,1.428l0,0.863c-0.465,0 -0.941,0.288 -1.428,0.863l-0.598,0l0,0.266l1.727,0l0,0.598l-1.428,0l0.299,0.265l0,0.299l-0.299,0.266c2.811,0 4.328,0.476 4.549,1.428l-0.266,0.298c0.952,0.133 1.428,0.421 1.428,0.864c-1.682,1.084 -7.382,2.501 -17.099,4.25c-11.4,1.925 -17.1,3.641 -17.1,5.146c-0.266,0.996 -1.118,1.848 -2.557,2.557l-0.298,0l-1.694,-1.428l-0.598,0l-1.427,0.299c0,-0.487 -0.941,-0.963 -2.823,-1.428l-0.863,0.266l-0.299,-0.266l0,-0.299l0.299,-0.863l-0.564,0l-0.299,0.299l-0.266,0l-0.299,-0.299l0,-0.266c1.572,-5.644 8.6,-21.604 21.084,-47.879c0,-1.903 1.329,-3.043 3.985,-3.419l11.123,0.298l11.123,-0.863Z" style="fill:#944dcc;fill-rule:nonzero;"/><path d="M480.459,518.127l0.299,0.298l0,0.299l0.896,-0.299c0.819,0.2 1.229,0.598 1.229,1.196l0.299,0l0.298,-0.897c2.79,0.598 4.184,1.096 4.184,1.494l-0.299,0.93l0.299,-0.299l0.299,0l0.896,0.299l0,0.299c0,1.461 -4.493,9.153 -13.48,23.076l-14.709,25.5l-2.391,5.113c-1.593,1.196 -2.999,1.793 -4.216,1.793c-5.003,-1.084 -7.504,-2.18 -7.504,-3.287c-2.789,-2.413 -4.184,-7.216 -4.184,-14.41c-3.232,3.564 -5.833,7.46 -7.803,11.688c-1.439,3.807 -3.541,5.711 -6.308,5.711c-1.284,0 -2.479,-0.399 -3.586,-1.196l-0.299,0.299l-0.299,0c-0.376,0 -0.974,-0.498 -1.793,-1.494c-1.461,0 -2.767,-4.803 -3.918,-14.41c-0.398,-2.723 -0.598,-8.622 -0.598,-17.698l0.598,-15.904c0,-1.66 1.804,-2.756 5.412,-3.287c2.634,0.421 4.826,1.616 6.574,3.586l0.631,1.793l0,2.125l-1.228,11.389l0,4.183l0.299,1.826l-0.299,1.495l0.299,0.298l-0.299,1.495l0,1.195l0.299,1.195l-0.299,1.195l0,1.528l12.019,-13.813c0.465,0 0.963,-2.401 1.494,-7.205l1.793,-0.597l0.598,-0.598l2.092,0.299l0.93,0l2.091,-0.299l0.299,0.299l0,0.299l-0.299,0.298l1.495,0.299l0.298,0l0.897,-0.597l0.299,0l0.299,0.298l0.298,-0.298l1.494,0l1.229,1.494c0.598,0 0.896,0.199 0.896,0.597l-3.32,8.102l-0.597,3.619l0,5.379l-0.299,0.299l0.299,3.021l0.298,0c3.144,-5.135 6.851,-10.437 11.123,-15.904c0.399,-1.395 0.996,-2.092 1.793,-2.092l-0.298,-0.299l0,-0.298c3.94,-6.53 6.341,-10.039 7.205,-10.526c0,-0.797 1.195,-3.187 3.586,-7.172c0,-1.106 0.896,-2.014 2.689,-2.722Zm-7.504,13.513l0,0.299l0.598,-0.598l0,-0.298l-0.598,0.597Zm-2.092,2.69l0,0.896l0.299,0l0,-0.896l-0.299,0Z" style="fill:#944dcc;fill-rule:nonzero;"/><path d="M528.072,520.75l0.631,0c0.93,0 2.169,0.719 3.719,2.158l0.299,0.299l0.299,0l-0.299,1.228l0.299,3.719c-0.332,3.298 -1.461,4.947 -3.387,4.947l-1.86,0c-8.057,0 -18.14,2.778 -30.248,8.334l0,0.598l0.299,0c14.964,1.239 23.198,3.298 24.703,6.176c1.439,0.841 2.159,2.291 2.159,4.349c-0.554,6.774 -1.373,10.16 -2.457,10.16c-4.649,3.476 -9.795,6.254 -15.44,8.334c-8.478,2.9 -20.11,6.198 -34.896,9.895l-0.299,-0.299l0,-0.332l2.158,-0.896l0,-0.631l-3.387,0.631l0,-0.332c0,-0.465 0.509,-0.775 1.528,-0.93l0,-0.598l-0.93,0l0,-0.631l0.631,0l0,-0.298l-1.86,-0.631l0.299,-0.299l0,-0.93c-0.819,0 -1.228,-0.31 -1.228,-0.93l-0.299,0.299l-0.631,0l0,-0.299l0.299,-0.298l0,-0.299l-0.598,0c0,-0.421 -0.31,-0.631 -0.93,-0.631l0,-0.299c0,-1.04 8.334,-3.929 25.002,-8.666c11.068,-3.829 17.454,-6.397 19.159,-7.703c-17.509,-1.151 -26.264,-3.01 -26.264,-5.578c-2.059,-1.328 -3.088,-3.276 -3.088,-5.844c0,-2.368 1.24,-5.146 3.719,-8.334c15.052,-10.293 29.351,-15.439 42.898,-15.439Zm-55.25,54.951l0,0.299l0.631,0l0,-0.299l-0.631,0Z" style="fill:#944dcc;fill-rule:nonzero;"/><path d="M547.031,519.554l1.76,0c5.135,1.882 7.703,4.35 7.703,7.405c-1.328,2.169 -6.652,13.292 -15.971,33.369l-2.357,4.15l18.328,-1.195l2.358,0.299l1.759,0l0,0.597l-0.863,0l0,0.897l1.76,0l0,0.597l-2.955,1.461l0.597,1.76l1.76,0l2.656,2.69c0,0.531 -5.81,1.604 -17.431,3.22c-4.914,0.996 -11.61,2.679 -20.088,5.047l-0.299,0c-1.085,0 -2.955,-1.582 -5.611,-4.748l0,-0.299l0.299,-0.265l-0.299,-0.299l0,-2.955c0,-0.996 0.885,-2.181 2.656,-3.553c9.297,-17.199 15.993,-31.775 20.088,-43.728l-0.299,-0.897c1.24,-2.368 2.723,-3.553 4.449,-3.553Z" style="fill:#944dcc;fill-rule:nonzero;"/><path d="M599.393,523.273c0,0.753 0.376,1.129 1.128,1.129l0,0.564l-0.863,0l0,0.299c0.952,0 1.428,0.188 1.428,0.565l0,0.299l-1.129,0c0,0.575 0.564,0.863 1.693,0.863l0,0.564l-0.863,0l0,0.266l3.42,0l2.59,1.428l-0.299,0.298l0,0.266c0.952,0 1.428,0.199 1.428,0.598c0,0.686 -3.52,1.439 -10.559,2.258c-2.39,0 -6.939,1.328 -13.646,3.984l-3.155,6.275l0.299,0c1.018,-0.376 3.962,-0.664 8.832,-0.863l0.565,0.863l-0.864,0.299l0,0.266c1.528,0 2.291,0.188 2.291,0.564l-1.427,0.598l0,0.266l0.564,0l-0.265,0.863c0,0.952 0.752,1.715 2.257,2.291l0,0.265l-0.265,0.299l0,0.266c0.952,0 1.427,0.199 1.427,0.598l0,0.265c0,0.576 -5.987,2.092 -17.962,4.549c-1.483,0 -3.387,2.855 -5.711,8.566l20.519,-3.419l0,0.564l0.299,0l1.428,-0.299c0.243,0.952 0.719,1.428 1.427,1.428l0,0.863c-0.464,0 -0.94,0.288 -1.427,0.863l-0.598,0l0,0.266l1.727,0l0,0.598l-1.428,0l0.299,0.265l0,0.299l-0.299,0.266c2.811,0 4.327,0.476 4.549,1.428l-0.266,0.298c0.952,0.133 1.428,0.421 1.428,0.864c-1.682,1.084 -7.382,2.501 -17.1,4.25c-11.4,1.925 -17.099,3.641 -17.099,5.146c-0.266,0.996 -1.118,1.848 -2.557,2.557l-0.299,0l-1.693,-1.428l-0.598,0l-1.428,0.299c0,-0.487 -0.94,-0.963 -2.822,-1.428l-0.863,0.266l-0.299,-0.266l0,-0.299l0.299,-0.863l-0.565,0l-0.298,0.299l-0.266,0l-0.299,-0.299l0,-0.266c1.572,-5.644 8.6,-21.604 21.084,-47.879c0,-1.903 1.328,-3.043 3.984,-3.419l11.124,0.298l11.123,-0.863Z" style="fill:#944dcc;fill-rule:nonzero;"/><path d="M630.902,520.517l5.944,0.299l5.943,0c1.151,0 1.992,0.531 2.524,1.594l-0.333,0.299c1.041,0.066 1.561,0.376 1.561,0.929l0,0.332l-3.42,0l0,0.299l1.229,0l0,0.631l-0.598,0l0.299,0.332l-0.299,0.299l0,0.631l1.56,0.299l0,0.332l-0.332,0.298l0,0.332c1.262,0 1.893,0.831 1.893,2.491c0.841,0.11 1.262,0.42 1.262,0.929l0,0.631l-18.494,2.192c-1.572,0 -2.823,1.981 -3.752,5.943c-11.024,21.471 -17.609,35.151 -19.756,41.039c-1.262,1.262 -2.302,1.893 -3.121,1.893l-1.262,-1.262c-1.24,0 -1.859,-0.52 -1.859,-1.561l-0.332,0.332l-0.299,0c-0.045,-0.531 -1.085,-1.472 -3.121,-2.822l-0.963,-1.594c0,-4.205 5.013,-15.373 15.041,-33.502l2.523,-5.943l-11.621,1.859c-4.383,0 -7.305,-1.981 -8.765,-5.943l-0.93,-3.752l0,-0.631c0,-1.328 0.83,-2.578 2.49,-3.752l4.084,0c6.552,0 17.52,-1.151 32.904,-3.453Z" style="fill:#944dcc;fill-rule:nonzero;"/><path d="M675.727,520.517l5.943,0.299l5.943,0c1.151,0 1.992,0.531 2.524,1.594l-0.332,0.299c1.04,0.066 1.56,0.376 1.56,0.929l0,0.332l-3.42,0l0,0.299l1.229,0l0,0.631l-0.598,0l0.299,0.332l-0.299,0.299l0,0.631l1.561,0.299l0,0.332l-0.332,0.298l0,0.332c1.261,0 1.892,0.831 1.892,2.491c0.841,0.11 1.262,0.42 1.262,0.929l0,0.631l-18.494,2.192c-1.572,0 -2.822,1.981 -3.752,5.943c-11.024,21.471 -17.609,35.151 -19.756,41.039c-1.262,1.262 -2.302,1.893 -3.121,1.893l-1.262,-1.262c-1.239,0 -1.859,-0.52 -1.859,-1.561l-0.332,0.332l-0.299,0c-0.044,-0.531 -1.085,-1.472 -3.121,-2.822l-0.963,-1.594c0,-4.205 5.014,-15.373 15.041,-33.502l2.523,-5.943l-11.621,1.859c-4.382,0 -7.304,-1.981 -8.765,-5.943l-0.93,-3.752l0,-0.631c0,-1.328 0.83,-2.578 2.49,-3.752l4.084,0c6.552,0 17.52,-1.151 32.905,-3.453Z" style="fill:#944dcc;fill-rule:nonzero;"/><path d="M727.258,523.273c0,0.753 0.376,1.129 1.129,1.129l0,0.564l-0.864,0l0,0.299c0.952,0 1.428,0.188 1.428,0.565l0,0.299l-1.129,0c0,0.575 0.565,0.863 1.694,0.863l0,0.564l-0.864,0l0,0.266l3.42,0l2.59,1.428l-0.299,0.298l0,0.266c0.952,0 1.428,0.199 1.428,0.598c0,0.686 -3.52,1.439 -10.559,2.258c-2.39,0 -6.939,1.328 -13.646,3.984l-3.154,6.275l0.298,0c1.019,-0.376 3.963,-0.664 8.832,-0.863l0.565,0.863l-0.863,0.299l0,0.266c1.527,0 2.291,0.188 2.291,0.564l-1.428,0.598l0,0.266l0.564,0l-0.265,0.863c0,0.952 0.752,1.715 2.258,2.291l0,0.265l-0.266,0.299l0,0.266c0.952,0 1.428,0.199 1.428,0.598l0,0.265c0,0.576 -5.988,2.092 -17.963,4.549c-1.483,0 -3.387,2.855 -5.711,8.566l20.519,-3.419l0,0.564l0.299,0l1.428,-0.299c0.243,0.952 0.719,1.428 1.428,1.428l0,0.863c-0.465,0 -0.941,0.288 -1.428,0.863l-0.598,0l0,0.266l1.727,0l0,0.598l-1.428,0l0.299,0.265l0,0.299l-0.299,0.266c2.811,0 4.328,0.476 4.549,1.428l-0.266,0.298c0.952,0.133 1.428,0.421 1.428,0.864c-1.682,1.084 -7.382,2.501 -17.1,4.25c-11.399,1.925 -17.099,3.641 -17.099,5.146c-0.266,0.996 -1.118,1.848 -2.557,2.557l-0.299,0l-1.693,-1.428l-0.598,0l-1.427,0.299c0,-0.487 -0.941,-0.963 -2.823,-1.428l-0.863,0.266l-0.299,-0.266l0,-0.299l0.299,-0.863l-0.564,0l-0.299,0.299l-0.266,0l-0.299,-0.299l0,-0.266c1.572,-5.644 8.6,-21.604 21.084,-47.879c0,-1.903 1.328,-3.043 3.985,-3.419l11.123,0.298l11.123,-0.863Z" style="fill:#944dcc;fill-rule:nonzero;"/><path d="M753.189,521.248l2.59,0c12.905,0 20.52,4.239 22.844,12.717l0.299,1.759l0,0.864c0,2.545 -5.789,6.784 -17.365,12.716c2.899,12.286 4.349,20.863 4.349,25.733l0.299,0.299l0,0.265l-0.299,0.897l0.299,2.59l-0.299,0.298l-0.564,0c0,-0.774 -0.199,-1.162 -0.598,-1.162c0,0.576 -0.188,0.864 -0.564,0.864l-0.598,0l-0.266,-0.299l-0.298,0c-0.288,0.774 -0.576,1.162 -0.864,1.162l-1.461,-0.299l-0.564,0.598c-0.133,-0.974 -0.62,-1.461 -1.461,-1.461c-3.077,-7.172 -5.766,-15.462 -8.068,-24.869l-13.016,4.349c-1.195,2.723 -2.158,4.261 -2.889,4.615l-0.299,1.461l-0.863,0l1.162,-3.187l0,-0.299l-0.299,0l-1.46,3.188l0.597,0.597c-0.73,0 -2.18,2.015 -4.349,6.043c-0.266,0.022 -0.842,1.284 -1.727,3.785c-0.398,0 -1.361,1.926 -2.889,5.778l-0.298,0c0,-0.886 -0.963,-1.66 -2.889,-2.325l-0.565,0.598c0,-0.398 -0.298,-0.598 -0.896,-0.598l-0.863,0.299c-0.421,-1.04 -0.996,-1.616 -1.727,-1.726l0,-0.897c0,-4.67 5.302,-17.586 15.904,-38.748c-4.05,-2.745 -6.076,-4.958 -6.076,-6.64l0,-1.428c0.155,-1.018 3.719,-2.756 10.692,-5.213c0.974,-1.55 6.087,-2.324 15.339,-2.324Zm-9.263,22.843l0.597,0c11.577,-4.958 18.605,-8.909 21.084,-11.853l0,-0.299l-5.777,-0.266l-0.564,0c-7.327,0 -10.991,0.864 -10.991,2.59c-2.28,5.822 -3.729,9.098 -4.349,9.828Z" style="fill:#944dcc;fill-rule:nonzero;"/></g><path d="M779.423,477.863c7.78,0.13 17.8,2.07 19,9.75c0.65,4 -1.64,7.89 -4.12,11.12c-15.51,20.27 -41.21,30.52 -66.57,33.27c-25.36,2.75 -50.92,-1.1 -76.24,-4.22c-36.594,-4.52 -73.327,-7.52 -110.2,-9c-26.22,-1.06 -53.8,-1.72 -76.38,-15.08c-4.19,-2.47 -8.31,-5.56 -10.32,-10c-4,-8.83 2.32,-19.58 11,-23.87c8.68,-4.29 18.88,-3.87 28.56,-3.35c95.06,5.12 190.05,11.38 285.27,11.38Z" style="fill:#000405;fill-opacity:0.05;fill-rule:nonzero;"/><path d="M779.753,126.403c0,0 -33.83,43.75 -40.25,51.08c-11.71,13.32 -19.26,30.79 -19.26,30.79l-17,72.34l-19,-5.07l-41.31,-11c0,0 14.68,-39.54 7.57,-51.54c-9.48,-16 -1.28,-26 0.88,-32.87c4,-12.73 -16.43,-36 -16.43,-36l-13.09,-58.63l19.76,-2.64l14.34,47.53l24.57,21.93l17.5,0.93c0,0 13.2,2.72 22.8,-1.72c9.18,-4.26 41.61,-40.83 41.61,-40.83l13.23,12l4.08,3.7Z" style="fill:#9547cf;fill-rule:nonzero;"/><path d="M617.683,200.593l0,260.56c-0.006,13.634 -11.226,24.85 -24.86,24.85c-0.004,0 -0.007,0 -0.01,0l-389.69,0c-13.638,0 -24.86,-11.223 -24.86,-24.86l0,-260.55c-0.006,-13.631 11.199,-24.854 24.83,-24.87l389.72,0c0.003,0 0.006,0 0.01,0c13.637,0 24.86,11.222 24.86,24.86c0,0.003 0,0.006 0,0.01Z" style="fill:#9547cf;fill-rule:nonzero;"/><path d="M610.943,183.673l-426.59,0l3.46,-2.65c0.159,-0.139 0.326,-0.269 0.5,-0.39l202.92,-155.56l6.41,-4.91l206.47,158.28l6.83,5.23Z" style="fill:#9547cf;fill-rule:nonzero;"/><path d="M617.683,200.593l-5.19,3.75l-37.79,27.37l-183.47,132.89l-176.45,-135.89l-36.52,-28.12l0.47,-4.83c0.888,-4.529 3.03,-8.718 6.18,-12.09c0.884,-0.963 1.847,-1.849 2.88,-2.65c0.159,-0.139 0.326,-0.269 0.5,-0.39c4.281,-3.198 9.486,-4.921 14.83,-4.91l389.69,0c12.735,0.011 23.511,9.795 24.75,22.47c0.08,0.8 0.12,1.6 0.12,2.4Z" style="fill:#9547cf;fill-rule:nonzero;"/><path d="M187.793,181.003c-1.028,0.806 -1.991,1.692 -2.88,2.65l-0.56,0l3.44,-2.65Z" style="fill:url(#_Linear1);fill-rule:nonzero;"/><path d="M617.683,200.593l-5.19,3.76l-37.79,27.36l-183.47,132.89l-176.45,-135.88l-36.52,-28.13l0.47,-4.82c1.155,-5.847 4.371,-11.09 9.06,-14.77l0.5,-0.38l202.94,-155.55l6.41,-4.91l206.47,158.28c7.559,3.849 12.641,11.315 13.45,19.76c0.08,0.794 0.12,1.592 0.12,2.39Z" style="fill:url(#_Linear2);fill-rule:nonzero;"/><path d="M574.703,181.343l0,50.38l-67.71,49l-15.53,11.28l-100.23,72.6l-94.27,-72.6l-14.61,-11.24l-67.59,-52l0,-47.42c0,-8.103 6.667,-14.77 14.77,-14.77l330.41,0c8.096,0.011 14.754,6.673 14.76,14.77Z" style="fill:#fff;fill-rule:nonzero;"/><path d="M525.083,225.513l-267,0c-3.083,0 -5.62,-2.537 -5.62,-5.62c0,-3.083 2.537,-5.62 5.62,-5.62l267,0c3.083,0 5.62,2.537 5.62,5.62c0,3.083 -2.537,5.62 -5.62,5.62Z" style="fill:url(#_Linear3);fill-rule:nonzero;"/><path d="M525.083,258.763l-267,0c-3.083,0 -5.62,-2.537 -5.62,-5.62c0,-3.083 2.537,-5.62 5.62,-5.62l267,0c3.083,0 5.62,2.537 5.62,5.62c0,3.083 -2.537,5.62 -5.62,5.62Z" style="fill:url(#_Linear4);fill-rule:nonzero;"/><path d="M506.993,280.763l-15.53,11.24l-194.5,0l-14.6,-11.24l224.63,0Z" style="fill:url(#_Linear5);fill-rule:nonzero;"/><path d="M391.233,364.603l-162.86,121.42l329.08,0l-166.22,-121.42Z" style="fill:#000405;fill-opacity:0.05;fill-rule:nonzero;"/><path d="M250.753,90.203c-8.2,-17.59 -39,-14.7 -39,-14.7c19,-11.21 15.36,-39.68 15.13,-41.36c8.31,24.82 37,19.34 39.57,18.8c-19.05,4.7 -15.7,37.26 -15.7,37.26Z" style="fill:#9547cf;fill-rule:nonzero;"/><path d="M197.353,126.293c-5.21,-11.18 -24.8,-9.34 -24.8,-9.34c12.4,-7.37 9.59,-26.34 9.59,-26.34l0,0.11c5.32,15.69 23.52,12.21 25.14,11.87c-12.06,3 -9.93,23.7 -9.93,23.7Z" style="fill:#9547cf;fill-rule:nonzero;"/><path d="M721.913,92.703c2.414,-1.939 5.47,-2.903 8.56,-2.7c2.261,-0.092 4.476,0.672 6.2,2.14c1.328,1.49 2.172,3.349 2.42,5.33c0.487,2.454 0.672,4.96 0.55,7.46c-0.22,4.59 -1.41,9.45 0.57,13.6c0.47,0.987 1.106,1.887 1.88,2.66c0.895,1.001 2.141,1.62 3.48,1.73c1.369,0.061 2.591,-0.896 2.86,-2.24c-1.71,3.808 -5.514,6.27 -9.689,6.27c-1.515,0 -3.012,-0.324 -4.391,-0.95c-0.83,-0.38 -1.609,-0.86 -2.32,-1.43l1.74,3.53c-1.442,-0.37 -2.837,-0.9 -4.16,-1.58c-4.25,-2.31 -6.63,-7 -7.76,-11.74c-1,-4.35 -1.2,-8.84 -2.14,-13.21c-0.69,-3.33 -0.51,-6.45 2.2,-8.87Z" style="fill:#3f3d56;fill-rule:nonzero;"/><path d="M720.633,97.503c0.863,-0.031 1.725,0.102 2.54,0.39c1.375,0.571 2.322,1.866 2.45,3.35c0.078,1.495 -0.741,2.901 -2.08,3.57c-0.856,0.349 -1.777,0.509 -2.7,0.47c-0.84,0 -1.69,0 -2.53,-0.08c-0.54,0.048 -1.038,-0.312 -1.16,-0.84c-0.549,-1.089 -0.962,-2.241 -1.23,-3.43c-0.69,-3.68 1.79,-3.46 4.71,-3.43Z" style="fill:#9547cf;fill-rule:nonzero;"/><path d="M704.353,132.613c0,0 -0.16,2.89 -0.36,6.65c-0.17,3.17 -0.38,7 -0.55,10.18c-0.29,5.378 -2.602,10.452 -6.47,14.2c-2.26,2.31 -7.65,6.62 -11.76,5.09c-2,-0.74 -2.07,-3.26 -1.65,-4.77c0.927,-2.753 1.442,-5.627 1.53,-8.53c0.065,-2.35 -0.146,-4.7 -0.63,-7c-2.57,-6.43 19.89,-15.82 19.89,-15.82Z" style="fill:url(#_Linear6);fill-rule:nonzero;"/><circle cx="391.233" cy="298.503" r="122.176" style="fill:url(#_Linear7);"/><g><path d="M313.966,281.288l5.581,0l0,-34.817l-5.581,0l0,-9.973l26.608,0.072c2.472,0 4.734,0.438 6.787,1.314c2.052,0.876 3.822,2.064 5.31,3.564c1.489,1.501 2.647,3.253 3.475,5.257c0.828,2.004 1.242,4.135 1.242,6.391c0,2.64 -0.462,4.825 -1.386,6.553c-0.924,1.728 -2.238,3.12 -3.943,4.176c1.801,1.153 3.223,2.575 4.267,4.267c1.044,1.692 1.566,3.75 1.566,6.175c0,2.472 -0.426,4.74 -1.278,6.805c-0.852,2.064 -2.016,3.846 -3.493,5.346c-1.476,1.501 -3.222,2.665 -5.238,3.493c-2.016,0.828 -4.189,1.242 -6.517,1.242l-27.4,0l0,-9.865Zm17.535,-12.71l0,12.71l9.073,0c0.696,0 1.35,-0.18 1.962,-0.54c0.612,-0.36 1.14,-0.834 1.584,-1.423c0.444,-0.588 0.798,-1.272 1.062,-2.052c0.264,-0.78 0.396,-1.59 0.396,-2.43c0,-0.888 -0.132,-1.71 -0.396,-2.466c-0.264,-0.757 -0.624,-1.417 -1.08,-1.981c-0.456,-0.564 -0.99,-1.008 -1.602,-1.332c-0.612,-0.324 -1.254,-0.486 -1.926,-0.486l-9.073,0Zm0,-22.107l0,12.242l8.569,0c0.672,0 1.308,-0.168 1.908,-0.504c0.6,-0.336 1.122,-0.786 1.566,-1.351c0.444,-0.564 0.798,-1.2 1.062,-1.908c0.264,-0.708 0.396,-1.446 0.396,-2.214c0,-0.744 -0.132,-1.488 -0.396,-2.232c-0.264,-0.744 -0.618,-1.417 -1.062,-2.017c-0.444,-0.6 -0.966,-1.086 -1.566,-1.458c-0.6,-0.372 -1.236,-0.558 -1.908,-0.558l-8.569,0Z" style="fill:#fff;fill-rule:nonzero;"/><path d="M389.8,292.125c-2.473,0 -4.837,-0.336 -7.093,-1.008c-2.257,-0.672 -4.363,-1.62 -6.319,-2.844c-1.956,-1.225 -3.733,-2.695 -5.329,-4.411c-1.596,-1.716 -2.958,-3.624 -4.086,-5.725c-1.129,-2.1 -2.005,-4.35 -2.629,-6.751c-0.624,-2.4 -0.936,-4.908 -0.936,-7.525c0,-2.616 0.312,-5.13 0.936,-7.543c0.624,-2.412 1.5,-4.668 2.629,-6.769c1.128,-2.1 2.49,-4.008 4.086,-5.724c1.596,-1.717 3.373,-3.187 5.329,-4.411c1.956,-1.224 4.062,-2.172 6.319,-2.844c2.256,-0.672 4.62,-1.008 7.093,-1.008c2.472,0 4.842,0.336 7.111,1.008c2.268,0.672 4.38,1.62 6.336,2.844c1.957,1.224 3.733,2.694 5.329,4.411c1.596,1.716 2.965,3.624 4.105,5.724c1.14,2.101 2.022,4.357 2.646,6.769c0.624,2.413 0.936,4.927 0.936,7.543c0,2.593 -0.312,5.095 -0.936,7.507c-0.624,2.413 -1.506,4.669 -2.646,6.769c-1.14,2.101 -2.509,4.009 -4.105,5.725c-1.596,1.716 -3.372,3.186 -5.329,4.411c-1.956,1.224 -4.068,2.172 -6.336,2.844c-2.269,0.672 -4.639,1.008 -7.111,1.008Zm0,-11.305c2.088,0 4.002,-0.45 5.742,-1.351c1.741,-0.9 3.235,-2.124 4.483,-3.672c1.248,-1.548 2.214,-3.348 2.898,-5.401c0.685,-2.052 1.027,-4.23 1.027,-6.535c0,-2.328 -0.348,-4.524 -1.045,-6.588c-0.696,-2.065 -1.674,-3.871 -2.934,-5.419c-1.26,-1.548 -2.754,-2.773 -4.483,-3.673c-1.728,-0.9 -3.624,-1.35 -5.688,-1.35c-2.065,0 -3.961,0.45 -5.689,1.35c-1.728,0.9 -3.217,2.125 -4.465,3.673c-1.248,1.548 -2.226,3.354 -2.934,5.419c-0.708,2.064 -1.062,4.26 -1.062,6.588c0,2.305 0.354,4.483 1.062,6.535c0.708,2.053 1.686,3.853 2.934,5.401c1.248,1.548 2.737,2.772 4.465,3.672c1.728,0.901 3.624,1.351 5.689,1.351Z" style="fill:#fff;fill-rule:nonzero;"/><path d="M431.558,281.288l5.653,0l0,-35.177l-6.625,0l0,7.057l-11.738,0l0,-16.598l49.651,0l0,16.598l-11.81,0l0,-7.057l-7.525,0l0,35.177l5.761,0l0,9.865l-23.367,0l0,-9.865Z" style="fill:#fff;fill-rule:nonzero;"/><path d="M360.376,298.575l23.368,0l0,9.901l-4.933,0l-12.566,44.682l-15.554,0l-8.245,-34.061l-8.425,34.061l-15.41,0l-12.782,-44.682l-5.509,0l0,-9.901l23.404,0l0,9.901l-5.689,0l8.029,29.416l9.685,-39.209l13.394,0l9.505,39.209l8.065,-29.416l-6.337,0l0,-9.901Z" style="fill:#fff;fill-rule:nonzero;"/><path d="M388.532,298.575l43.422,0l0,18.614l-11.738,0l0,-7.741l-14.005,0l0,10.766l10.837,0l0,10.441l-10.837,0l0,12.638l14.005,0l0,-9.686l11.738,0l0,19.551l-43.422,0l0,-9.865l5.725,0l0,-33.845l-5.725,0l0,-10.873Z" style="fill:#fff;fill-rule:nonzero;"/><path d="M438.219,343.293l5.581,0l0,-34.817l-5.581,0l0,-9.973l26.607,0.072c2.473,0 4.735,0.438 6.787,1.314c2.053,0.876 3.823,2.064 5.311,3.564c1.488,1.501 2.646,3.253 3.474,5.257c0.829,2.004 1.243,4.135 1.243,6.391c0,2.64 -0.462,4.825 -1.387,6.553c-0.924,1.728 -2.238,3.12 -3.942,4.176c1.8,1.152 3.222,2.575 4.266,4.267c1.045,1.692 1.567,3.75 1.567,6.175c0,2.472 -0.426,4.74 -1.278,6.805c-0.853,2.064 -2.017,3.846 -3.493,5.346c-1.476,1.501 -3.222,2.665 -5.239,3.493c-2.016,0.828 -4.188,1.242 -6.517,1.242l-27.399,0l0,-9.865Zm17.534,-12.71l0,12.71l9.073,0c0.696,0 1.351,-0.18 1.963,-0.54c0.612,-0.36 1.14,-0.835 1.584,-1.423c0.444,-0.588 0.798,-1.272 1.062,-2.052c0.264,-0.78 0.396,-1.59 0.396,-2.43c0,-0.888 -0.132,-1.71 -0.396,-2.467c-0.264,-0.756 -0.624,-1.416 -1.08,-1.98c-0.456,-0.564 -0.99,-1.008 -1.602,-1.332c-0.612,-0.324 -1.255,-0.486 -1.927,-0.486l-9.073,0Zm0,-22.107l0,12.242l8.569,0c0.672,0 1.308,-0.168 1.909,-0.504c0.6,-0.336 1.122,-0.787 1.566,-1.351c0.444,-0.564 0.798,-1.2 1.062,-1.908c0.264,-0.708 0.396,-1.446 0.396,-2.214c0,-0.744 -0.132,-1.488 -0.396,-2.232c-0.264,-0.745 -0.618,-1.417 -1.062,-2.017c-0.444,-0.6 -0.966,-1.086 -1.566,-1.458c-0.601,-0.372 -1.237,-0.558 -1.909,-0.558l-8.569,0Z" style="fill:#fff;fill-rule:nonzero;"/></g><path d="M704.353,132.613c0,0 -0.16,2.89 -0.36,6.65c-1.58,3.52 -3.06,6.39 -3.87,7.82c-1.63,2.89 -8.33,7.44 -15,8.35c0.065,-2.35 -0.146,-4.7 -0.63,-7c-2.6,-6.43 19.86,-15.82 19.86,-15.82Z" style="fill:url(#_Linear8);fill-rule:nonzero;"/><path d="M684.793,94.323c-11.767,0.713 -20.863,10.983 -20.15,22.75c0,0.51 0.08,1 0.15,1.52c0.668,8.737 2.911,17.281 6.62,25.22c7,12 24.74,2.13 27.55,-2.81c2.81,-4.94 13.59,-27.22 9.06,-33.53c-3.12,-4.26 -11.77,-13.61 -23.23,-13.15Z" style="fill:url(#_Linear9);fill-rule:nonzero;"/><path d="M678.493,82.133c7.525,-2.197 15.555,-1.963 22.94,0.67c7.27,2.76 13.54,8.44 16.31,15.71c2.378,6.735 2.15,14.124 -0.64,20.7c-2.815,6.523 -7.299,12.19 -13,16.43c-1.47,-4.5 3.06,-8.5 4.82,-12.89c0.41,-0.811 0.499,-1.747 0.25,-2.62c-0.64,-1.63 -3.08,-1.81 -4.47,-0.75c-1.39,1.06 -2,2.85 -2.51,4.52c1.35,-7.15 2.35,-15.55 -2.71,-20.79c-3,-3.1 -7.53,-4.26 -11.85,-4.3c-8.016,-0.024 -15.693,3.277 -21.19,9.11c-1.59,1.71 -3.85,3.81 -5.87,2.63c-0.629,-0.43 -1.121,-1.03 -1.42,-1.73c-5.97,-11.82 9.71,-24.05 19.34,-26.69Z" style="fill:#3f3d56;fill-rule:nonzero;"/><path d="M688.153,95.343c-5,-2.2 -10.25,-4 -15.68,-4c-5.43,0 -11.06,1.84 -14.65,5.92c-1.875,2.273 -3.239,4.923 -4,7.77c-0.601,1.781 -0.839,3.665 -0.7,5.54c0.217,1.359 0.552,2.698 1,4c0.94,3.24 1.34,7 -0.71,9.72c-0.771,1.097 -2.002,1.783 -3.34,1.86c-1.364,0.024 -2.545,-0.981 -2.74,-2.33c-0.88,2.49 0.56,5.41 2.85,6.72c2.385,1.211 5.179,1.346 7.67,0.37c1.036,-0.325 1.998,-0.852 2.83,-1.55c0.823,-0.792 1.5,-1.723 2,-2.75c2.09,-3.79 3.14,-8 4.7,-12.09c1.56,-4.09 3.82,-8 7.51,-10.3c2.923,-1.597 6.209,-2.414 9.54,-2.37c3.31,-0.11 6.64,0.16 9.94,-0.14c3.3,-0.3 0.91,-2.26 -0.51,-3.29c-1.794,-1.219 -3.707,-2.251 -5.71,-3.08Z" style="fill:#3f3d56;fill-rule:nonzero;"/><path d="M822.463,59.493c0.85,0.66 -7.11,6.86 -7.11,6.86c0,0 -3.72,6.41 -7.5,8.19c-3.78,1.78 -32.18,48.15 -32.18,48.15l-11.21,-10.16l24.18,-32.53c0,0 8,-15.33 7.11,-22c0,0 0.48,-7.88 2.89,-4.22c1.7,2.61 0.61,6.72 2.62,7.16c0.222,0.019 0.445,-0.03 0.64,-0.14c1.667,-1.012 3.197,-2.235 4.55,-3.64c4,-3.81 8.78,-9.11 8.78,-9.11c0,0 2.62,-1.11 2.29,0c-0.33,1.11 -5.14,8.6 -5.41,9c0.45,-0.41 7.83,-7 9,-6.49c1.17,0.51 -5.72,8.1 -6.12,8.54c0.43,-0.3 8.3,-5.78 8.89,-5.29c1.11,0.93 -6,7.1 -6.59,7.57c0.45,-0.24 4.36,-2.53 5.17,-1.89Z" style="fill:url(#_Linear10);fill-rule:nonzero;"/><path d="M814.023,64.243c-0.597,0.194 -1.231,0.245 -1.85,0.15c-2.017,-0.154 -4.04,-0.187 -6.06,-0.1c-1.36,0.06 -4.17,1 -4.24,-1.11c0,-0.56 0.14,-1.11 0.11,-1.67c-0.014,-0.243 -0.048,-0.483 -0.1,-0.72c1.667,-1.012 3.197,-2.235 4.55,-3.64c0.612,0.204 1.192,0.497 1.72,0.87l3.94,2.55c0.7,0.46 1.4,0.92 2.07,1.42c0.296,0.185 0.532,0.453 0.68,0.77c0.128,0.625 -0.222,1.257 -0.82,1.48Z" style="fill:url(#_Linear11);fill-rule:nonzero;"/><path d="M618.753,7.423c-1.08,0.12 2.42,9.58 2.42,9.58c0,0 -0.22,7.41 2,10.91c2.22,3.5 2,57.15 2,57.15l14.88,-2l-3.38,-40.41c0,0 1.29,-17.24 5.56,-22.43c0,0 3.74,-6.95 -0.23,-5.11c-2.82,1.32 -4.07,5.38 -6,4.7c-0.204,-0.096 -0.37,-0.258 -0.47,-0.46c-0.909,-1.733 -1.582,-3.579 -2,-5.49c-1.41,-5.35 -2.65,-12.37 -2.65,-12.37c0,0 -1.6,-2.3 -1.86,-1.19c-0.26,1.11 -0.17,10 -0.16,10.51c-0.17,-0.57 -3,-10.09 -4.25,-10.26c-1.25,-0.17 0.59,9.9 0.71,10.48c-0.22,-0.48 -4,-9.28 -4.78,-9.18c-1.43,0.21 1.41,9.23 1.62,9.9c-0.28,-0.44 -2.39,-4.43 -3.41,-4.33Z" style="fill:url(#_Linear12);fill-rule:nonzero;"/><path d="M623.353,15.913c0.416,0.479 0.94,0.853 1.53,1.09c1.791,0.939 3.528,1.981 5.2,3.12c1.13,0.77 3,3.07 4.19,1.29c0.32,-0.46 0.47,-1 0.79,-1.47c0.145,-0.199 0.302,-0.389 0.47,-0.57c-0.909,-1.733 -1.582,-3.579 -2,-5.49c-0.629,-0.148 -1.276,-0.202 -1.92,-0.16l-4.69,0.09c-0.842,-0.019 -1.684,0.018 -2.52,0.11c-0.356,-0.003 -0.705,0.102 -1,0.3c-0.433,0.47 -0.455,1.195 -0.05,1.69Z" style="fill:url(#_Linear13);fill-rule:nonzero;"/><path d="M744.403,481.683l7.83,8.19l-19.88,20.72l-26,0c0,0 5.54,-9.15 16.62,-10.6c11.08,-1.45 13.73,-14 13.73,-14l7.7,-4.31Z" style="fill:url(#_Linear14);fill-rule:nonzero;"/><path d="M216.163,74.063l-4.39,1.44c19,-11.21 15.36,-39.68 15.13,-41.36c0.3,1.35 4.72,20.14 2.31,26.31c-3.01,7.71 -13.05,13.61 -13.05,13.61Z" style="fill:#fff;fill-opacity:0.22;fill-rule:nonzero;"/><path d="M184.763,108.443c-2.32,3.21 -11.54,8.16 -12.17,8.49c12.4,-7.37 9.59,-26.34 9.59,-26.34l0,0.11c0.49,1.3 4.84,14.6 2.58,17.74Z" style="fill:#fff;fill-opacity:0.22;fill-rule:nonzero;"/><path d="M391.233,364.583l0,0.44l6.74,4.93l219.71,-158.14l0,249.32c-0.006,13.634 -11.226,24.85 -24.86,24.85c-0.004,0 -0.007,0 -0.01,0l-389.69,0c-13.638,0 -24.86,-11.223 -24.86,-24.86l0,-247.14l0.725,0l0.015,0.27l203.67,156.71l8.56,-6.38Z" style="fill:#9547cf;fill-rule:nonzero;"/><path d="M391.233,364.583l-162.86,121.42l329.08,0l-166.22,-121.42Z" style="fill:#000405;fill-opacity:0.05;fill-rule:nonzero;"/><path d="M617.563,198.643l-0.6,1.68l-4.47,4.47c3.14,-5.42 -5.73,-18 -5.73,-18l-3.54,-2.65l-10.63,-8l-201.36,-150.62l6.41,-4.91l206.47,158.27c7.555,3.853 12.636,11.317 13.45,19.76Z" style="fill:#fff;fill-opacity:0.22;fill-rule:nonzero;"/><path d="M779.753,126.403c0,0 -33.83,43.75 -40.25,51.08c-11.71,13.32 -19.26,30.79 -19.26,30.79l-17,72.34l-19,-5.07c0,0 17.74,-66.33 24.87,-80.41c7.13,-14.08 66.54,-72.44 66.54,-72.44l4.1,3.71Z" style="fill:url(#_Linear15);fill-rule:nonzero;"/><path d="M179.003,214.273l203.67,156.71l8.56,-6.38l-212.97,-164.01l0.74,13.68Z" style="fill:#ab72d7;fill-rule:nonzero;"/><path d="M397.973,369.973l219.71,-158.14l0,-10.79l-226.45,164l6.74,4.93Z" style="fill:#ab72d7;fill-rule:nonzero;"/><path d="M744.403,481.683l-7.71,4.32l-66,-69.38l-7.28,-92.62l-60.18,54.59c0,0 1.61,37.59 -19.43,67c-3.77,5.27 -11.44,20.58 -17.24,32.54c-0.18,0.37 -0.36,0.75 -0.53,1.12l-1.13,-0.23l-3.93,-0.82l-8.53,-1.76l27.66,-111.8l62.85,-100.06l41.31,11l19,5.07c0,0 12.82,25.69 0,92.18l-8.5,38.06c0,0 34.26,18.27 44.82,54.41l4.77,16.36l0.05,0.02Z" style="fill:#3f3d56;fill-rule:nonzero;"/><path d="M744.353,481.663c-0.35,-1 -11.64,-32.36 -28.59,-45.51c-17.21,-13.36 -27.21,-31.8 -27.21,-31.8c-4,-35.4 -4.33,-128.81 -4.33,-128.81l19,5.07c0,0 12.82,25.69 0,92.18l-8.5,38.06c0,0 34.26,18.31 44.82,54.45l4.81,16.36Z" style="fill:#25233a;fill-rule:nonzero;"/><path d="M603.233,378.573c0,0 1.61,37.59 -19.43,67c-3.77,5.27 -11.44,20.58 -17.24,32.54l-1.66,0.89l-3.93,-0.82l32.62,-102.89c0,0 39.51,-46.81 46.76,-51.29c7.25,-4.48 23.08,0 23.08,0l-60.2,54.57Z" style="fill:#25233a;fill-rule:nonzero;"/><path d="M566.023,479.213c-4,8.17 -6.91,14.52 -6.91,14.52l-50.33,2.4c0,0 8.34,-22.07 21.91,-16.37c4.59,1.92 21.22,-1.69 21.22,-1.69l0.52,-1.67l13.59,2.81Z" style="fill:url(#_Linear16);fill-rule:nonzero;"/><defs><linearGradient id="_Linear1" x1="0" y1="0" x2="1" y2="0" gradientUnits="userSpaceOnUse" gradientTransform="matrix(3.83,-10.41,10.41,3.83,184.483,186.623)"><stop offset="0" style="stop-color:#00272e;stop-opacity:0.61"/><stop offset="0.36" style="stop-color:#00272e;stop-opacity:0.61"/><stop offset="0.75" style="stop-color:#3f80a1;stop-opacity:0.150706"/><stop offset="1" style="stop-color:#69b9eb;stop-opacity:0"/></linearGradient><linearGradient id="_Linear2" x1="0" y1="0" x2="1" y2="0" gradientUnits="userSpaceOnUse" gradientTransform="matrix(-121,430,-430,-121,445.043,31.6127)"><stop offset="0" style="stop-color:#000;stop-opacity:0"/><stop offset="0.91" style="stop-color:#000;stop-opacity:0.8"/><stop offset="1" style="stop-color:#000;stop-opacity:1"/></linearGradient><linearGradient id="_Linear3" x1="0" y1="0" x2="1" y2="0" gradientUnits="userSpaceOnUse" gradientTransform="matrix(-73,350,-350,-73,406.193,149.833)"><stop offset="0" style="stop-color:#000;stop-opacity:0"/><stop offset="0.91" style="stop-color:#000;stop-opacity:0.8"/><stop offset="1" style="stop-color:#000;stop-opacity:1"/></linearGradient><linearGradient id="_Linear4" x1="0" y1="0" x2="1" y2="0" gradientUnits="userSpaceOnUse" gradientTransform="matrix(-73,350,-350,-73,412.843,151.213)"><stop offset="0" style="stop-color:#000;stop-opacity:0"/><stop offset="0.91" style="stop-color:#000;stop-opacity:0.8"/><stop offset="1" style="stop-color:#000;stop-opacity:1"/></linearGradient><linearGradient id="_Linear5" x1="0" y1="0" x2="1" y2="0" gradientUnits="userSpaceOnUse" gradientTransform="matrix(-73,350,-350,-73,421.323,152.993)"><stop offset="0" style="stop-color:#000;stop-opacity:0"/><stop offset="0.91" style="stop-color:#000;stop-opacity:0.8"/><stop offset="1" style="stop-color:#000;stop-opacity:1"/></linearGradient><linearGradient id="_Linear6" x1="0" y1="0" x2="1" y2="0" gradientUnits="userSpaceOnUse" gradientTransform="matrix(21,0,0,21,683.363,150.833)"><stop offset="0" style="stop-color:#ecc4d7;stop-opacity:1"/><stop offset="0.42" style="stop-color:#efd4d1;stop-opacity:1"/><stop offset="1" style="stop-color:#f2eac9;stop-opacity:1"/></linearGradient><linearGradient id="_Linear7" x1="0" y1="0" x2="1" y2="0" gradientUnits="userSpaceOnUse" gradientTransform="matrix(107.744,-340.409,340.409,107.744,335.929,515.766)"><stop offset="0" style="stop-color:#ae78d8;stop-opacity:1"/><stop offset="1" style="stop-color:#9547cf;stop-opacity:1"/></linearGradient><linearGradient id="_Linear8" x1="0" y1="0" x2="1" y2="0" gradientUnits="userSpaceOnUse" gradientTransform="matrix(-4.33,-48.55,48.55,-4.33,694.843,458.853)"><stop offset="0" style="stop-color:#ecc4d7;stop-opacity:1"/><stop offset="0.42" style="stop-color:#efd4d1;stop-opacity:1"/><stop offset="1" style="stop-color:#f2eac9;stop-opacity:1"/></linearGradient><linearGradient id="_Linear9" x1="0" y1="0" x2="1" y2="0" gradientUnits="userSpaceOnUse" gradientTransform="matrix(44.52,0,0,44.52,664.933,476.093)"><stop offset="0" style="stop-color:#ecc4d7;stop-opacity:1"/><stop offset="0.42" style="stop-color:#efd4d1;stop-opacity:1"/><stop offset="1" style="stop-color:#f2eac9;stop-opacity:1"/></linearGradient><linearGradient id="_Linear10" x1="0" y1="0" x2="1" y2="0" gradientUnits="userSpaceOnUse" gradientTransform="matrix(59.54,0,0,59.54,764.793,512.883)"><stop offset="0" style="stop-color:#ecc4d7;stop-opacity:1"/><stop offset="0.42" style="stop-color:#efd4d1;stop-opacity:1"/><stop offset="1" style="stop-color:#f2eac9;stop-opacity:1"/></linearGradient><linearGradient id="_Linear11" x1="0" y1="0" x2="1" y2="0" gradientUnits="userSpaceOnUse" gradientTransform="matrix(-6.02,46.74,-46.74,-6.02,810.633,519.933)"><stop offset="0" style="stop-color:#ecc4d7;stop-opacity:1"/><stop offset="0.42" style="stop-color:#efd4d1;stop-opacity:1"/><stop offset="1" style="stop-color:#f2eac9;stop-opacity:1"/></linearGradient><linearGradient id="_Linear12" x1="0" y1="0" x2="1" y2="0" gradientUnits="userSpaceOnUse" gradientTransform="matrix(-50.5258,-31.4985,31.4985,-50.5258,655.172,61.1539)"><stop offset="0" style="stop-color:#ecc4d7;stop-opacity:1"/><stop offset="0.42" style="stop-color:#efd4d1;stop-opacity:1"/><stop offset="1" style="stop-color:#f2eac9;stop-opacity:1"/></linearGradient><linearGradient id="_Linear13" x1="0" y1="0" x2="1" y2="0" gradientUnits="userSpaceOnUse" gradientTransform="matrix(29.8355,-36.4789,36.4789,29.8355,619.87,30.697)"><stop offset="0" style="stop-color:#ecc4d7;stop-opacity:1"/><stop offset="0.42" style="stop-color:#efd4d1;stop-opacity:1"/><stop offset="1" style="stop-color:#f2eac9;stop-opacity:1"/></linearGradient><linearGradient id="_Linear14" x1="0" y1="0" x2="1" y2="0" gradientUnits="userSpaceOnUse" gradientTransform="matrix(12.85,-17.98,17.98,12.85,723.573,106.253)"><stop offset="0" style="stop-color:#68e1fd;stop-opacity:1"/><stop offset="0.01" style="stop-color:#67ddf9;stop-opacity:1"/><stop offset="0.12" style="stop-color:#5cb3ce;stop-opacity:1"/><stop offset="0.24" style="stop-color:#538ea9;stop-opacity:1"/><stop offset="0.37" style="stop-color:#4c718b;stop-opacity:1"/><stop offset="0.5" style="stop-color:#465a73;stop-opacity:1"/><stop offset="0.63" style="stop-color:#424a63;stop-opacity:1"/><stop offset="0.79" style="stop-color:#404059;stop-opacity:1"/><stop offset="0.99" style="stop-color:#3f3d56;stop-opacity:1"/><stop offset="1" style="stop-color:#3f3d56;stop-opacity:1"/></linearGradient><linearGradient id="_Linear15" x1="0" y1="0" x2="1" y2="0" gradientUnits="userSpaceOnUse" gradientTransform="matrix(143.03,316.48,-316.48,143.03,691.643,111.673)"><stop offset="0" style="stop-color:#000;stop-opacity:0"/><stop offset="0.91" style="stop-color:#000;stop-opacity:0.8"/><stop offset="1" style="stop-color:#000;stop-opacity:1"/></linearGradient><linearGradient id="_Linear16" x1="0" y1="0" x2="1" y2="0" gradientUnits="userSpaceOnUse" gradientTransform="matrix(7.71,32.12,-32.12,7.71,533.193,470.113)"><stop offset="0" style="stop-color:#68e1fd;stop-opacity:1"/><stop offset="0.01" style="stop-color:#67ddf9;stop-opacity:1"/><stop offset="0.12" style="stop-color:#5cb3ce;stop-opacity:1"/><stop offset="0.24" style="stop-color:#538ea9;stop-opacity:1"/><stop offset="0.37" style="stop-color:#4c718b;stop-opacity:1"/><stop offset="0.5" style="stop-color:#465a73;stop-opacity:1"/><stop offset="0.63" style="stop-color:#424a63;stop-opacity:1"/><stop offset="0.79" style="stop-color:#404059;stop-opacity:1"/><stop offset="0.99" style="stop-color:#3f3d56;stop-opacity:1"/><stop offset="1" style="stop-color:#3f3d56;stop-opacity:1"/></linearGradient></defs></svg>